<svg width="344" height="235" viewBox="0 0 344 235" fill="none" xmlns="http://www.w3.org/2000/svg">
<g clip-path="url(#clip0_63_27881)">
<rect width="344" height="235" fill="white"/>
<path d="M3.47727 13.0909V2.18182H4.17614V13.0909H3.47727ZM5.82955 5.45455C5.77841 5.02273 5.57102 4.6875 5.20739 4.44886C4.84375 4.21023 4.39773 4.09091 3.86932 4.09091C3.48295 4.09091 3.14489 4.15341 2.85511 4.27841C2.56818 4.40341 2.34375 4.57528 2.18182 4.79403C2.02273 5.01278 1.94318 5.26136 1.94318 5.53977C1.94318 5.77273 1.99858 5.97301 2.10938 6.14062C2.22301 6.3054 2.3679 6.44318 2.54403 6.55398C2.72017 6.66193 2.90483 6.75142 3.09801 6.82244C3.29119 6.89062 3.46875 6.94602 3.63068 6.98864L4.51705 7.22727C4.74432 7.28693 4.99716 7.36932 5.27557 7.47443C5.55682 7.57955 5.82528 7.72301 6.08097 7.90483C6.33949 8.08381 6.55256 8.31392 6.72017 8.59517C6.88778 8.87642 6.97159 9.22159 6.97159 9.63068C6.97159 10.1023 6.84801 10.5284 6.60085 10.9091C6.35653 11.2898 5.99858 11.5923 5.52699 11.8168C5.05824 12.0412 4.48864 12.1534 3.81818 12.1534C3.19318 12.1534 2.65199 12.0526 2.1946 11.8509C1.74006 11.6491 1.3821 11.3679 1.12074 11.0071C0.862216 10.6463 0.715909 10.2273 0.681818 9.75H1.77273C1.80114 10.0795 1.91193 10.3523 2.10511 10.5682C2.30114 10.7812 2.5483 10.9403 2.84659 11.0455C3.14773 11.1477 3.47159 11.1989 3.81818 11.1989C4.22159 11.1989 4.58381 11.1335 4.90483 11.0028C5.22585 10.8693 5.48011 10.6847 5.66761 10.4489C5.85511 10.2102 5.94886 9.93182 5.94886 9.61364C5.94886 9.32386 5.8679 9.08807 5.70597 8.90625C5.54403 8.72443 5.33097 8.5767 5.06676 8.46307C4.80256 8.34943 4.51705 8.25 4.21023 8.16477L3.13636 7.85795C2.45455 7.66193 1.91477 7.3821 1.51705 7.01847C1.11932 6.65483 0.920455 6.17898 0.920455 5.59091C0.920455 5.10227 1.05256 4.67614 1.31676 4.3125C1.58381 3.94602 1.94176 3.66193 2.39062 3.46023C2.84233 3.25568 3.34659 3.15341 3.90341 3.15341C4.46591 3.15341 4.96591 3.25426 5.40341 3.45597C5.84091 3.65483 6.1875 3.92756 6.44318 4.27415C6.7017 4.62074 6.83807 5.0142 6.85227 5.45455H5.82955ZM10.923 12.1193C10.423 12.1193 9.97274 12.0199 9.57217 11.821C9.17161 11.6222 8.85058 11.3494 8.60911 11.0028C8.36763 10.6562 8.23553 10.2614 8.2128 9.81818H9.23553C9.2753 10.2131 9.45428 10.5398 9.77246 10.7983C10.0935 11.054 10.477 11.1818 10.923 11.1818C11.281 11.1818 11.5992 11.098 11.8776 10.9304C12.1588 10.7628 12.379 10.5327 12.5381 10.2401C12.7 9.9446 12.781 9.6108 12.781 9.23864C12.781 8.85795 12.6972 8.51847 12.5296 8.22017C12.3648 7.91903 12.1375 7.68182 11.8477 7.50852C11.558 7.33523 11.227 7.24716 10.8548 7.24432C10.5878 7.24148 10.3137 7.28267 10.0324 7.3679C9.75115 7.45028 9.51962 7.55682 9.3378 7.6875L8.34916 7.56818L8.87757 3.27273H13.4117V4.21023H9.76393L9.45712 6.78409H9.50825C9.68723 6.64205 9.91166 6.52415 10.1815 6.4304C10.4514 6.33665 10.7327 6.28977 11.0253 6.28977C11.5594 6.28977 12.0352 6.41761 12.4529 6.6733C12.8733 6.92614 13.2029 7.27273 13.4415 7.71307C13.683 8.15341 13.8037 8.65625 13.8037 9.22159C13.8037 9.77841 13.6787 10.2756 13.4287 10.7131C13.1815 11.1477 12.8406 11.4915 12.406 11.7443C11.9713 11.9943 11.477 12.1193 10.923 12.1193ZM15.2899 12V3.27273H16.3468V7.60227H16.449L20.3695 3.27273H21.7502L18.0854 7.21023L21.7502 12H20.4718L17.4377 7.94318L16.3468 9.17045V12H15.2899Z" fill="#6B7280"/>
<path d="M3.47727 52.0909V41.1818H4.17614V52.0909H3.47727ZM5.82955 44.4545C5.77841 44.0227 5.57102 43.6875 5.20739 43.4489C4.84375 43.2102 4.39773 43.0909 3.86932 43.0909C3.48295 43.0909 3.14489 43.1534 2.85511 43.2784C2.56818 43.4034 2.34375 43.5753 2.18182 43.794C2.02273 44.0128 1.94318 44.2614 1.94318 44.5398C1.94318 44.7727 1.99858 44.973 2.10938 45.1406C2.22301 45.3054 2.3679 45.4432 2.54403 45.554C2.72017 45.6619 2.90483 45.7514 3.09801 45.8224C3.29119 45.8906 3.46875 45.946 3.63068 45.9886L4.51705 46.2273C4.74432 46.2869 4.99716 46.3693 5.27557 46.4744C5.55682 46.5795 5.82528 46.723 6.08097 46.9048C6.33949 47.0838 6.55256 47.3139 6.72017 47.5952C6.88778 47.8764 6.97159 48.2216 6.97159 48.6307C6.97159 49.1023 6.84801 49.5284 6.60085 49.9091C6.35653 50.2898 5.99858 50.5923 5.52699 50.8168C5.05824 51.0412 4.48864 51.1534 3.81818 51.1534C3.19318 51.1534 2.65199 51.0526 2.1946 50.8509C1.74006 50.6491 1.3821 50.3679 1.12074 50.0071C0.862216 49.6463 0.715909 49.2273 0.681818 48.75H1.77273C1.80114 49.0795 1.91193 49.3523 2.10511 49.5682C2.30114 49.7812 2.5483 49.9403 2.84659 50.0455C3.14773 50.1477 3.47159 50.1989 3.81818 50.1989C4.22159 50.1989 4.58381 50.1335 4.90483 50.0028C5.22585 49.8693 5.48011 49.6847 5.66761 49.4489C5.85511 49.2102 5.94886 48.9318 5.94886 48.6136C5.94886 48.3239 5.8679 48.0881 5.70597 47.9062C5.54403 47.7244 5.33097 47.5767 5.06676 47.4631C4.80256 47.3494 4.51705 47.25 4.21023 47.1648L3.13636 46.858C2.45455 46.6619 1.91477 46.3821 1.51705 46.0185C1.11932 45.6548 0.920455 45.179 0.920455 44.5909C0.920455 44.1023 1.05256 43.6761 1.31676 43.3125C1.58381 42.946 1.94176 42.6619 2.39062 42.4602C2.84233 42.2557 3.34659 42.1534 3.90341 42.1534C4.46591 42.1534 4.96591 42.2543 5.40341 42.456C5.84091 42.6548 6.1875 42.9276 6.44318 43.2741C6.7017 43.6207 6.83807 44.0142 6.85227 44.4545H5.82955ZM7.99121 49.2102V48.3409L11.8264 42.2727H12.4571V43.6193H12.031L9.13325 48.2045V48.2727H14.298V49.2102H7.99121ZM12.0992 51V48.946V48.5412V42.2727H13.1048V51H12.0992ZM15.6884 51V42.2727H16.7452V46.6023H16.8475L20.7679 42.2727H22.1486L18.4838 46.2102L22.1486 51H20.8702L17.8361 46.9432L16.7452 48.1705V51H15.6884Z" fill="#6B7280"/>
<path d="M3.47727 91.0909V80.1818H4.17614V91.0909H3.47727ZM5.82955 83.4545C5.77841 83.0227 5.57102 82.6875 5.20739 82.4489C4.84375 82.2102 4.39773 82.0909 3.86932 82.0909C3.48295 82.0909 3.14489 82.1534 2.85511 82.2784C2.56818 82.4034 2.34375 82.5753 2.18182 82.794C2.02273 83.0128 1.94318 83.2614 1.94318 83.5398C1.94318 83.7727 1.99858 83.973 2.10938 84.1406C2.22301 84.3054 2.3679 84.4432 2.54403 84.554C2.72017 84.6619 2.90483 84.7514 3.09801 84.8224C3.29119 84.8906 3.46875 84.946 3.63068 84.9886L4.51705 85.2273C4.74432 85.2869 4.99716 85.3693 5.27557 85.4744C5.55682 85.5795 5.82528 85.723 6.08097 85.9048C6.33949 86.0838 6.55256 86.3139 6.72017 86.5952C6.88778 86.8764 6.97159 87.2216 6.97159 87.6307C6.97159 88.1023 6.84801 88.5284 6.60085 88.9091C6.35653 89.2898 5.99858 89.5923 5.52699 89.8168C5.05824 90.0412 4.48864 90.1534 3.81818 90.1534C3.19318 90.1534 2.65199 90.0526 2.1946 89.8509C1.74006 89.6491 1.3821 89.3679 1.12074 89.0071C0.862216 88.6463 0.715909 88.2273 0.681818 87.75H1.77273C1.80114 88.0795 1.91193 88.3523 2.10511 88.5682C2.30114 88.7812 2.5483 88.9403 2.84659 89.0455C3.14773 89.1477 3.47159 89.1989 3.81818 89.1989C4.22159 89.1989 4.58381 89.1335 4.90483 89.0028C5.22585 88.8693 5.48011 88.6847 5.66761 88.4489C5.85511 88.2102 5.94886 87.9318 5.94886 87.6136C5.94886 87.3239 5.8679 87.0881 5.70597 86.9062C5.54403 86.7244 5.33097 86.5767 5.06676 86.4631C4.80256 86.3494 4.51705 86.25 4.21023 86.1648L3.13636 85.858C2.45455 85.6619 1.91477 85.3821 1.51705 85.0185C1.11932 84.6548 0.920455 84.179 0.920455 83.5909C0.920455 83.1023 1.05256 82.6761 1.31676 82.3125C1.58381 81.946 1.94176 81.6619 2.39062 81.4602C2.84233 81.2557 3.34659 81.1534 3.90341 81.1534C4.46591 81.1534 4.96591 81.2543 5.40341 81.456C5.84091 81.6548 6.1875 81.9276 6.44318 82.2741C6.7017 82.6207 6.83807 83.0142 6.85227 83.4545H5.82955ZM11.1446 90.1193C10.5821 90.1193 10.0807 90.0227 9.64036 89.8295C9.20286 89.6364 8.85484 89.3679 8.59632 89.0241C8.34064 88.6776 8.20143 88.2756 8.17871 87.8182H9.25257C9.2753 88.0994 9.37189 88.3423 9.54234 88.5469C9.7128 88.7486 9.93581 88.9048 10.2114 89.0156C10.4869 89.1264 10.7923 89.1818 11.1276 89.1818C11.5026 89.1818 11.835 89.1165 12.1247 88.9858C12.4145 88.8551 12.6418 88.6733 12.8065 88.4403C12.9713 88.2074 13.0537 87.9375 13.0537 87.6307C13.0537 87.3097 12.9742 87.027 12.8151 86.7827C12.656 86.5355 12.423 86.3423 12.1162 86.2031C11.8094 86.0639 11.4344 85.9943 10.9912 85.9943H10.2923V85.0568H10.9912C11.3378 85.0568 11.6418 84.9943 11.9031 84.8693C12.1673 84.7443 12.3733 84.5682 12.521 84.3409C12.6716 84.1136 12.7469 83.8466 12.7469 83.5398C12.7469 83.2443 12.6815 82.9872 12.5509 82.7685C12.4202 82.5497 12.2355 82.3793 11.9969 82.2571C11.7611 82.1349 11.4827 82.0739 11.1617 82.0739C10.8605 82.0739 10.5764 82.1293 10.3094 82.2401C10.0452 82.348 9.82928 82.5057 9.66166 82.7131C9.49405 82.9176 9.40314 83.1648 9.38893 83.4545H8.36621C8.38325 82.9972 8.52104 82.5966 8.77956 82.2528C9.03808 81.9062 9.37615 81.6364 9.79376 81.4432C10.2142 81.25 10.6759 81.1534 11.1787 81.1534C11.7185 81.1534 12.1815 81.2628 12.5679 81.4815C12.9543 81.6974 13.2512 81.983 13.4585 82.3381C13.6659 82.6932 13.7696 83.0767 13.7696 83.4886C13.7696 83.9801 13.6404 84.3991 13.3818 84.7457C13.1262 85.0923 12.7781 85.3324 12.3378 85.4659V85.5341C12.8889 85.625 13.3193 85.8594 13.629 86.2372C13.9387 86.6122 14.0935 87.0767 14.0935 87.6307C14.0935 88.1051 13.9642 88.5312 13.7057 88.9091C13.45 89.2841 13.1006 89.5795 12.6574 89.7955C12.2142 90.0114 11.71 90.1193 11.1446 90.1193ZM15.6298 90V81.2727H16.6866V85.6023H16.7889L20.7093 81.2727H22.09L18.4252 85.2102L22.09 90H20.8116L17.7775 85.9432L16.6866 87.1705V90H15.6298Z" fill="#6B7280"/>
<path d="M3.47727 130.091V119.182H4.17614V130.091H3.47727ZM5.82955 122.455C5.77841 122.023 5.57102 121.688 5.20739 121.449C4.84375 121.21 4.39773 121.091 3.86932 121.091C3.48295 121.091 3.14489 121.153 2.85511 121.278C2.56818 121.403 2.34375 121.575 2.18182 121.794C2.02273 122.013 1.94318 122.261 1.94318 122.54C1.94318 122.773 1.99858 122.973 2.10938 123.141C2.22301 123.305 2.3679 123.443 2.54403 123.554C2.72017 123.662 2.90483 123.751 3.09801 123.822C3.29119 123.891 3.46875 123.946 3.63068 123.989L4.51705 124.227C4.74432 124.287 4.99716 124.369 5.27557 124.474C5.55682 124.58 5.82528 124.723 6.08097 124.905C6.33949 125.084 6.55256 125.314 6.72017 125.595C6.88778 125.876 6.97159 126.222 6.97159 126.631C6.97159 127.102 6.84801 127.528 6.60085 127.909C6.35653 128.29 5.99858 128.592 5.52699 128.817C5.05824 129.041 4.48864 129.153 3.81818 129.153C3.19318 129.153 2.65199 129.053 2.1946 128.851C1.74006 128.649 1.3821 128.368 1.12074 128.007C0.862216 127.646 0.715909 127.227 0.681818 126.75H1.77273C1.80114 127.08 1.91193 127.352 2.10511 127.568C2.30114 127.781 2.5483 127.94 2.84659 128.045C3.14773 128.148 3.47159 128.199 3.81818 128.199C4.22159 128.199 4.58381 128.134 4.90483 128.003C5.22585 127.869 5.48011 127.685 5.66761 127.449C5.85511 127.21 5.94886 126.932 5.94886 126.614C5.94886 126.324 5.8679 126.088 5.70597 125.906C5.54403 125.724 5.33097 125.577 5.06676 125.463C4.80256 125.349 4.51705 125.25 4.21023 125.165L3.13636 124.858C2.45455 124.662 1.91477 124.382 1.51705 124.018C1.11932 123.655 0.920455 123.179 0.920455 122.591C0.920455 122.102 1.05256 121.676 1.31676 121.312C1.58381 120.946 1.94176 120.662 2.39062 120.46C2.84233 120.256 3.34659 120.153 3.90341 120.153C4.46591 120.153 4.96591 120.254 5.40341 120.456C5.84091 120.655 6.1875 120.928 6.44318 121.274C6.7017 121.621 6.83807 122.014 6.85227 122.455H5.82955ZM8.19575 129V128.233L11.0764 125.08C11.4145 124.71 11.6929 124.389 11.9117 124.116C12.1304 123.841 12.2923 123.582 12.3975 123.341C12.5054 123.097 12.5594 122.841 12.5594 122.574C12.5594 122.267 12.4855 122.001 12.3378 121.777C12.1929 121.553 11.994 121.379 11.7412 121.257C11.4884 121.135 11.2043 121.074 10.8889 121.074C10.5537 121.074 10.2611 121.143 10.0111 121.283C9.76393 121.419 9.57217 121.611 9.43581 121.858C9.30229 122.105 9.23553 122.395 9.23553 122.727H8.22984C8.22984 122.216 8.34774 121.767 8.58354 121.381C8.81933 120.994 9.14036 120.693 9.54661 120.477C9.9557 120.261 10.4145 120.153 10.923 120.153C11.4344 120.153 11.8875 120.261 12.2824 120.477C12.6773 120.693 12.9869 120.984 13.2114 121.351C13.4358 121.717 13.548 122.125 13.548 122.574C13.548 122.895 13.4898 123.209 13.3733 123.516C13.2597 123.82 13.0608 124.159 12.7767 124.534C12.4955 124.906 12.1048 125.361 11.6048 125.898L9.64462 127.994V128.062H13.7014V129H8.19575ZM15.2548 129V120.273H16.3116V124.602H16.4139L20.3343 120.273H21.715L18.0502 124.21L21.715 129H20.4366L17.4025 124.943L16.3116 126.17V129H15.2548Z" fill="#6B7280"/>
<path d="M3.47727 169.091V158.182H4.17614V169.091H3.47727ZM5.82955 161.455C5.77841 161.023 5.57102 160.688 5.20739 160.449C4.84375 160.21 4.39773 160.091 3.86932 160.091C3.48295 160.091 3.14489 160.153 2.85511 160.278C2.56818 160.403 2.34375 160.575 2.18182 160.794C2.02273 161.013 1.94318 161.261 1.94318 161.54C1.94318 161.773 1.99858 161.973 2.10938 162.141C2.22301 162.305 2.3679 162.443 2.54403 162.554C2.72017 162.662 2.90483 162.751 3.09801 162.822C3.29119 162.891 3.46875 162.946 3.63068 162.989L4.51705 163.227C4.74432 163.287 4.99716 163.369 5.27557 163.474C5.55682 163.58 5.82528 163.723 6.08097 163.905C6.33949 164.084 6.55256 164.314 6.72017 164.595C6.88778 164.876 6.97159 165.222 6.97159 165.631C6.97159 166.102 6.84801 166.528 6.60085 166.909C6.35653 167.29 5.99858 167.592 5.52699 167.817C5.05824 168.041 4.48864 168.153 3.81818 168.153C3.19318 168.153 2.65199 168.053 2.1946 167.851C1.74006 167.649 1.3821 167.368 1.12074 167.007C0.862216 166.646 0.715909 166.227 0.681818 165.75H1.77273C1.80114 166.08 1.91193 166.352 2.10511 166.568C2.30114 166.781 2.5483 166.94 2.84659 167.045C3.14773 167.148 3.47159 167.199 3.81818 167.199C4.22159 167.199 4.58381 167.134 4.90483 167.003C5.22585 166.869 5.48011 166.685 5.66761 166.449C5.85511 166.21 5.94886 165.932 5.94886 165.614C5.94886 165.324 5.8679 165.088 5.70597 164.906C5.54403 164.724 5.33097 164.577 5.06676 164.463C4.80256 164.349 4.51705 164.25 4.21023 164.165L3.13636 163.858C2.45455 163.662 1.91477 163.382 1.51705 163.018C1.11932 162.655 0.920455 162.179 0.920455 161.591C0.920455 161.102 1.05256 160.676 1.31676 160.312C1.58381 159.946 1.94176 159.662 2.39062 159.46C2.84233 159.256 3.34659 159.153 3.90341 159.153C4.46591 159.153 4.96591 159.254 5.40341 159.456C5.84091 159.655 6.1875 159.928 6.44318 160.274C6.7017 160.621 6.83807 161.014 6.85227 161.455H5.82955ZM11.2639 159.273V168H10.2071V160.381H10.156L8.0253 161.795V160.722L10.2071 159.273H11.2639ZM13.5673 168V159.273H14.6241V163.602H14.7264L18.6468 159.273H20.0275L16.3627 163.21L20.0275 168H18.7491L15.715 163.943L14.6241 165.17V168H13.5673Z" fill="#6B7280"/>
<path d="M3.47727 208.091V197.182H4.17614V208.091H3.47727ZM5.82955 200.455C5.77841 200.023 5.57102 199.688 5.20739 199.449C4.84375 199.21 4.39773 199.091 3.86932 199.091C3.48295 199.091 3.14489 199.153 2.85511 199.278C2.56818 199.403 2.34375 199.575 2.18182 199.794C2.02273 200.013 1.94318 200.261 1.94318 200.54C1.94318 200.773 1.99858 200.973 2.10938 201.141C2.22301 201.305 2.3679 201.443 2.54403 201.554C2.72017 201.662 2.90483 201.751 3.09801 201.822C3.29119 201.891 3.46875 201.946 3.63068 201.989L4.51705 202.227C4.74432 202.287 4.99716 202.369 5.27557 202.474C5.55682 202.58 5.82528 202.723 6.08097 202.905C6.33949 203.084 6.55256 203.314 6.72017 203.595C6.88778 203.876 6.97159 204.222 6.97159 204.631C6.97159 205.102 6.84801 205.528 6.60085 205.909C6.35653 206.29 5.99858 206.592 5.52699 206.817C5.05824 207.041 4.48864 207.153 3.81818 207.153C3.19318 207.153 2.65199 207.053 2.1946 206.851C1.74006 206.649 1.3821 206.368 1.12074 206.007C0.862216 205.646 0.715909 205.227 0.681818 204.75H1.77273C1.80114 205.08 1.91193 205.352 2.10511 205.568C2.30114 205.781 2.5483 205.94 2.84659 206.045C3.14773 206.148 3.47159 206.199 3.81818 206.199C4.22159 206.199 4.58381 206.134 4.90483 206.003C5.22585 205.869 5.48011 205.685 5.66761 205.449C5.85511 205.21 5.94886 204.932 5.94886 204.614C5.94886 204.324 5.8679 204.088 5.70597 203.906C5.54403 203.724 5.33097 203.577 5.06676 203.463C4.80256 203.349 4.51705 203.25 4.21023 203.165L3.13636 202.858C2.45455 202.662 1.91477 202.382 1.51705 202.018C1.11932 201.655 0.920455 201.179 0.920455 200.591C0.920455 200.102 1.05256 199.676 1.31676 199.312C1.58381 198.946 1.94176 198.662 2.39062 198.46C2.84233 198.256 3.34659 198.153 3.90341 198.153C4.46591 198.153 4.96591 198.254 5.40341 198.456C5.84091 198.655 6.1875 198.928 6.44318 199.274C6.7017 199.621 6.83807 200.014 6.85227 200.455H5.82955ZM11.0423 207.119C10.4003 207.119 9.85342 206.945 9.40172 206.595C8.95001 206.243 8.60484 205.733 8.36621 205.065C8.12757 204.395 8.00825 203.585 8.00825 202.636C8.00825 201.693 8.12757 200.888 8.36621 200.22C8.60768 199.55 8.95428 199.038 9.40598 198.686C9.86053 198.331 10.406 198.153 11.0423 198.153C11.6787 198.153 12.2227 198.331 12.6744 198.686C13.129 199.038 13.4756 199.55 13.7142 200.22C13.9557 200.888 14.0764 201.693 14.0764 202.636C14.0764 203.585 13.9571 204.395 13.7185 205.065C13.4798 205.733 13.1347 206.243 12.683 206.595C12.2313 206.945 11.6844 207.119 11.0423 207.119ZM11.0423 206.182C11.6787 206.182 12.173 205.875 12.5253 205.261C12.8776 204.648 13.0537 203.773 13.0537 202.636C13.0537 201.881 12.9727 201.237 12.8108 200.706C12.6517 200.175 12.4216 199.77 12.1205 199.491C11.8222 199.213 11.4628 199.074 11.0423 199.074C10.4117 199.074 9.91876 199.385 9.56365 200.007C9.20854 200.626 9.03098 201.503 9.03098 202.636C9.03098 203.392 9.11053 204.034 9.26962 204.562C9.42871 205.091 9.6574 205.493 9.9557 205.768C10.2568 206.044 10.619 206.182 11.0423 206.182ZM15.4892 207V198.273H16.546V202.602H16.6483L20.5687 198.273H21.9494L18.2846 202.21L21.9494 207H20.671L17.6369 202.943L16.546 204.17V207H15.4892Z" fill="#6B7280"/>
<path d="M51.75 232H49.0568V223.273H51.8693C52.7159 223.273 53.4403 223.447 54.0426 223.797C54.6449 224.143 55.1065 224.642 55.4276 225.293C55.7486 225.94 55.9091 226.716 55.9091 227.619C55.9091 228.528 55.7472 229.311 55.4233 229.967C55.0994 230.621 54.6278 231.124 54.0085 231.476C53.3892 231.825 52.6364 232 51.75 232ZM50.1136 231.062H51.6818C52.4034 231.062 53.0014 230.923 53.4759 230.645C53.9503 230.366 54.304 229.97 54.5369 229.456C54.7699 228.942 54.8864 228.33 54.8864 227.619C54.8864 226.915 54.7713 226.308 54.5412 225.8C54.3111 225.288 53.9673 224.896 53.5099 224.624C53.0526 224.348 52.483 224.21 51.8011 224.21H50.1136V231.062ZM57.3218 232V223.273H58.3786V227.602H58.4809L62.4014 223.273H63.782L60.1173 227.21L63.782 232H62.5036L59.4695 227.943L58.3786 229.17V232H57.3218Z" fill="#6B7280"/>
<path d="M136.977 223.273V232H135.955L131.199 225.148H131.114V232H130.057V223.273H131.08L135.852 230.142H135.938V223.273H136.977ZM146.096 227.636C146.096 228.557 145.929 229.352 145.597 230.023C145.265 230.693 144.809 231.21 144.229 231.574C143.65 231.938 142.988 232.119 142.243 232.119C141.499 232.119 140.837 231.938 140.258 231.574C139.678 231.21 139.222 230.693 138.89 230.023C138.557 229.352 138.391 228.557 138.391 227.636C138.391 226.716 138.557 225.92 138.89 225.25C139.222 224.58 139.678 224.062 140.258 223.699C140.837 223.335 141.499 223.153 142.243 223.153C142.988 223.153 143.65 223.335 144.229 223.699C144.809 224.062 145.265 224.58 145.597 225.25C145.929 225.92 146.096 226.716 146.096 227.636ZM145.073 227.636C145.073 226.881 144.946 226.243 144.694 225.723C144.444 225.203 144.104 224.81 143.675 224.543C143.249 224.276 142.772 224.142 142.243 224.142C141.715 224.142 141.236 224.276 140.807 224.543C140.381 224.81 140.042 225.203 139.789 225.723C139.539 226.243 139.414 226.881 139.414 227.636C139.414 228.392 139.539 229.03 139.789 229.55C140.042 230.07 140.381 230.463 140.807 230.73C141.236 230.997 141.715 231.131 142.243 231.131C142.772 231.131 143.249 230.997 143.675 230.73C144.104 230.463 144.444 230.07 144.694 229.55C144.946 229.03 145.073 228.392 145.073 227.636Z" fill="#6B7280"/>
<path d="M216.83 225.455C216.778 225.023 216.571 224.688 216.207 224.449C215.844 224.21 215.398 224.091 214.869 224.091C214.483 224.091 214.145 224.153 213.855 224.278C213.568 224.403 213.344 224.575 213.182 224.794C213.023 225.013 212.943 225.261 212.943 225.54C212.943 225.773 212.999 225.973 213.109 226.141C213.223 226.305 213.368 226.443 213.544 226.554C213.72 226.662 213.905 226.751 214.098 226.822C214.291 226.891 214.469 226.946 214.631 226.989L215.517 227.227C215.744 227.287 215.997 227.369 216.276 227.474C216.557 227.58 216.825 227.723 217.081 227.905C217.339 228.084 217.553 228.314 217.72 228.595C217.888 228.876 217.972 229.222 217.972 229.631C217.972 230.102 217.848 230.528 217.601 230.909C217.357 231.29 216.999 231.592 216.527 231.817C216.058 232.041 215.489 232.153 214.818 232.153C214.193 232.153 213.652 232.053 213.195 231.851C212.74 231.649 212.382 231.368 212.121 231.007C211.862 230.646 211.716 230.227 211.682 229.75H212.773C212.801 230.08 212.912 230.352 213.105 230.568C213.301 230.781 213.548 230.94 213.847 231.045C214.148 231.148 214.472 231.199 214.818 231.199C215.222 231.199 215.584 231.134 215.905 231.003C216.226 230.869 216.48 230.685 216.668 230.449C216.855 230.21 216.949 229.932 216.949 229.614C216.949 229.324 216.868 229.088 216.706 228.906C216.544 228.724 216.331 228.577 216.067 228.463C215.803 228.349 215.517 228.25 215.21 228.165L214.136 227.858C213.455 227.662 212.915 227.382 212.517 227.018C212.119 226.655 211.92 226.179 211.92 225.591C211.92 225.102 212.053 224.676 212.317 224.312C212.584 223.946 212.942 223.662 213.391 223.46C213.842 223.256 214.347 223.153 214.903 223.153C215.466 223.153 215.966 223.254 216.403 223.456C216.841 223.655 217.188 223.928 217.443 224.274C217.702 224.621 217.838 225.014 217.852 225.455H216.83ZM219.349 232V223.273H224.616V224.21H220.406V227.159H224.343V228.097H220.406V231.062H224.684V232H219.349Z" fill="#6B7280"/>
<path d="M293.75 232H291.057V223.273H293.869C294.716 223.273 295.44 223.447 296.043 223.797C296.645 224.143 297.107 224.642 297.428 225.293C297.749 225.94 297.909 226.716 297.909 227.619C297.909 228.528 297.747 229.311 297.423 229.967C297.099 230.621 296.628 231.124 296.009 231.476C295.389 231.825 294.636 232 293.75 232ZM292.114 231.062H293.682C294.403 231.062 295.001 230.923 295.476 230.645C295.95 230.366 296.304 229.97 296.537 229.456C296.77 228.942 296.886 228.33 296.886 227.619C296.886 226.915 296.771 226.308 296.541 225.8C296.311 225.288 295.967 224.896 295.51 224.624C295.053 224.348 294.483 224.21 293.801 224.21H292.114V231.062ZM299.322 232V223.273H304.589V224.21H300.379V227.159H304.316V228.097H300.379V231.062H304.657V232H299.322Z" fill="#6B7280"/>
<line x1="-321" y1="7.50006" x2="344" y2="7.5" stroke="#F3F4F6" stroke-dasharray="4 4"/>
<line x1="-321" y1="45.5001" x2="344" y2="45.5" stroke="#F3F4F6" stroke-dasharray="4 4"/>
<line x1="-321" y1="83.5001" x2="344" y2="83.5" stroke="#F3F4F6" stroke-dasharray="4 4"/>
<line x1="-321" y1="121.5" x2="344" y2="121.5" stroke="#F3F4F6" stroke-dasharray="4 4"/>
<line x1="-321" y1="159.5" x2="344" y2="159.5" stroke="#F3F4F6" stroke-dasharray="4 4"/>
<line x1="-321" y1="197.5" x2="344" y2="197.5" stroke="#F3F4F6" stroke-dasharray="4 4"/>
<path d="M50 48C50 45.7909 51.7909 44 54 44H64C66.2091 44 68 45.7909 68 48V198H50V48Z" fill="#F3F4F6"/>
<path d="M50 88C50 85.7909 51.7909 84 54 84H64C66.2091 84 68 85.7909 68 88V198H50V88Z" fill="#D3756B"/>
<path d="M129.333 78C129.333 75.7909 131.124 74 133.333 74H143.333C145.543 74 147.333 75.7909 147.333 78V198H129.333V78Z" fill="#F3F4F6"/>
<path d="M129.333 107C129.333 104.791 131.124 103 133.333 103H143.333C145.543 103 147.333 104.791 147.333 107V198H129.333V107Z" fill="#D3756B"/>
<path d="M208.667 70C208.667 67.7909 210.457 66 212.667 66H222.667C224.876 66 226.667 67.7909 226.667 70V198H208.667V70Z" fill="#F3F4F6"/>
<path d="M208.667 122C208.667 119.791 210.457 118 212.667 118H222.667C224.876 118 226.667 119.791 226.667 122V198H208.667V122Z" fill="#D3756B"/>
<path d="M288 130C288 127.791 289.791 126 292 126H302C304.209 126 306 127.791 306 130V198H288V130Z" fill="#F3F4F6"/>
<path d="M288 178C288 175.791 289.791 174 292 174H302C304.209 174 306 175.791 306 178V198H288V178Z" fill="#D3756B"/>
</g>
<defs>
<clipPath id="clip0_63_27881">
<rect width="344" height="235" fill="white"/>
</clipPath>
</defs>
</svg>
