<svg width="872" height="235" viewBox="0 0 872 235" fill="none" xmlns="http://www.w3.org/2000/svg">
<g clip-path="url(#clip0_16_2303)">
<path d="M3.47727 13.0909V2.18182H4.17614V13.0909H3.47727ZM5.82955 5.45455C5.77841 5.02273 5.57102 4.6875 5.20739 4.44886C4.84375 4.21023 4.39773 4.09091 3.86932 4.09091C3.48295 4.09091 3.14489 4.15341 2.85511 4.27841C2.56818 4.40341 2.34375 4.57528 2.18182 4.79403C2.02273 5.01278 1.94318 5.26136 1.94318 5.53977C1.94318 5.77273 1.99858 5.97301 2.10938 6.14062C2.22301 6.3054 2.3679 6.44318 2.54403 6.55398C2.72017 6.66193 2.90483 6.75142 3.09801 6.82244C3.29119 6.89062 3.46875 6.94602 3.63068 6.98864L4.51705 7.22727C4.74432 7.28693 4.99716 7.36932 5.27557 7.47443C5.55682 7.57955 5.82528 7.72301 6.08097 7.90483C6.33949 8.08381 6.55256 8.31392 6.72017 8.59517C6.88778 8.87642 6.97159 9.22159 6.97159 9.63068C6.97159 10.1023 6.84801 10.5284 6.60085 10.9091C6.35653 11.2898 5.99858 11.5923 5.52699 11.8168C5.05824 12.0412 4.48864 12.1534 3.81818 12.1534C3.19318 12.1534 2.65199 12.0526 2.1946 11.8509C1.74006 11.6491 1.3821 11.3679 1.12074 11.0071C0.862216 10.6463 0.715909 10.2273 0.681818 9.75H1.77273C1.80114 10.0795 1.91193 10.3523 2.10511 10.5682C2.30114 10.7812 2.5483 10.9403 2.84659 11.0455C3.14773 11.1477 3.47159 11.1989 3.81818 11.1989C4.22159 11.1989 4.58381 11.1335 4.90483 11.0028C5.22585 10.8693 5.48011 10.6847 5.66761 10.4489C5.85511 10.2102 5.94886 9.93182 5.94886 9.61364C5.94886 9.32386 5.8679 9.08807 5.70597 8.90625C5.54403 8.72443 5.33097 8.5767 5.06676 8.46307C4.80256 8.34943 4.51705 8.25 4.21023 8.16477L3.13636 7.85795C2.45455 7.66193 1.91477 7.3821 1.51705 7.01847C1.11932 6.65483 0.920455 6.17898 0.920455 5.59091C0.920455 5.10227 1.05256 4.67614 1.31676 4.3125C1.58381 3.94602 1.94176 3.66193 2.39062 3.46023C2.84233 3.25568 3.34659 3.15341 3.90341 3.15341C4.46591 3.15341 4.96591 3.25426 5.40341 3.45597C5.84091 3.65483 6.1875 3.92756 6.44318 4.27415C6.7017 4.62074 6.83807 5.0142 6.85227 5.45455H5.82955ZM10.923 12.1193C10.423 12.1193 9.97274 12.0199 9.57217 11.821C9.17161 11.6222 8.85058 11.3494 8.60911 11.0028C8.36763 10.6562 8.23553 10.2614 8.2128 9.81818H9.23553C9.2753 10.2131 9.45428 10.5398 9.77246 10.7983C10.0935 11.054 10.477 11.1818 10.923 11.1818C11.281 11.1818 11.5992 11.098 11.8776 10.9304C12.1588 10.7628 12.379 10.5327 12.5381 10.2401C12.7 9.9446 12.781 9.6108 12.781 9.23864C12.781 8.85795 12.6972 8.51847 12.5296 8.22017C12.3648 7.91903 12.1375 7.68182 11.8477 7.50852C11.558 7.33523 11.227 7.24716 10.8548 7.24432C10.5878 7.24148 10.3137 7.28267 10.0324 7.3679C9.75115 7.45028 9.51962 7.55682 9.3378 7.6875L8.34916 7.56818L8.87757 3.27273H13.4117V4.21023H9.76393L9.45712 6.78409H9.50825C9.68723 6.64205 9.91166 6.52415 10.1815 6.4304C10.4514 6.33665 10.7327 6.28977 11.0253 6.28977C11.5594 6.28977 12.0352 6.41761 12.4529 6.6733C12.8733 6.92614 13.2029 7.27273 13.4415 7.71307C13.683 8.15341 13.8037 8.65625 13.8037 9.22159C13.8037 9.77841 13.6787 10.2756 13.4287 10.7131C13.1815 11.1477 12.8406 11.4915 12.406 11.7443C11.9713 11.9943 11.477 12.1193 10.923 12.1193ZM15.2899 12V3.27273H16.3468V7.60227H16.449L20.3695 3.27273H21.7502L18.0854 7.21023L21.7502 12H20.4718L17.4377 7.94318L16.3468 9.17045V12H15.2899Z" fill="#6B7280"/>
<path d="M3.47727 52.0909V41.1818H4.17614V52.0909H3.47727ZM5.82955 44.4545C5.77841 44.0227 5.57102 43.6875 5.20739 43.4489C4.84375 43.2102 4.39773 43.0909 3.86932 43.0909C3.48295 43.0909 3.14489 43.1534 2.85511 43.2784C2.56818 43.4034 2.34375 43.5753 2.18182 43.794C2.02273 44.0128 1.94318 44.2614 1.94318 44.5398C1.94318 44.7727 1.99858 44.973 2.10938 45.1406C2.22301 45.3054 2.3679 45.4432 2.54403 45.554C2.72017 45.6619 2.90483 45.7514 3.09801 45.8224C3.29119 45.8906 3.46875 45.946 3.63068 45.9886L4.51705 46.2273C4.74432 46.2869 4.99716 46.3693 5.27557 46.4744C5.55682 46.5795 5.82528 46.723 6.08097 46.9048C6.33949 47.0838 6.55256 47.3139 6.72017 47.5952C6.88778 47.8764 6.97159 48.2216 6.97159 48.6307C6.97159 49.1023 6.84801 49.5284 6.60085 49.9091C6.35653 50.2898 5.99858 50.5923 5.52699 50.8168C5.05824 51.0412 4.48864 51.1534 3.81818 51.1534C3.19318 51.1534 2.65199 51.0526 2.1946 50.8509C1.74006 50.6491 1.3821 50.3679 1.12074 50.0071C0.862216 49.6463 0.715909 49.2273 0.681818 48.75H1.77273C1.80114 49.0795 1.91193 49.3523 2.10511 49.5682C2.30114 49.7812 2.5483 49.9403 2.84659 50.0455C3.14773 50.1477 3.47159 50.1989 3.81818 50.1989C4.22159 50.1989 4.58381 50.1335 4.90483 50.0028C5.22585 49.8693 5.48011 49.6847 5.66761 49.4489C5.85511 49.2102 5.94886 48.9318 5.94886 48.6136C5.94886 48.3239 5.8679 48.0881 5.70597 47.9062C5.54403 47.7244 5.33097 47.5767 5.06676 47.4631C4.80256 47.3494 4.51705 47.25 4.21023 47.1648L3.13636 46.858C2.45455 46.6619 1.91477 46.3821 1.51705 46.0185C1.11932 45.6548 0.920455 45.179 0.920455 44.5909C0.920455 44.1023 1.05256 43.6761 1.31676 43.3125C1.58381 42.946 1.94176 42.6619 2.39062 42.4602C2.84233 42.2557 3.34659 42.1534 3.90341 42.1534C4.46591 42.1534 4.96591 42.2543 5.40341 42.456C5.84091 42.6548 6.1875 42.9276 6.44318 43.2741C6.7017 43.6207 6.83807 44.0142 6.85227 44.4545H5.82955ZM7.99121 49.2102V48.3409L11.8264 42.2727H12.4571V43.6193H12.031L9.13325 48.2045V48.2727H14.298V49.2102H7.99121ZM12.0992 51V48.946V48.5412V42.2727H13.1048V51H12.0992ZM15.6884 51V42.2727H16.7452V46.6023H16.8475L20.7679 42.2727H22.1486L18.4838 46.2102L22.1486 51H20.8702L17.8361 46.9432L16.7452 48.1705V51H15.6884Z" fill="#6B7280"/>
<path d="M3.47727 91.0909V80.1818H4.17614V91.0909H3.47727ZM5.82955 83.4545C5.77841 83.0227 5.57102 82.6875 5.20739 82.4489C4.84375 82.2102 4.39773 82.0909 3.86932 82.0909C3.48295 82.0909 3.14489 82.1534 2.85511 82.2784C2.56818 82.4034 2.34375 82.5753 2.18182 82.794C2.02273 83.0128 1.94318 83.2614 1.94318 83.5398C1.94318 83.7727 1.99858 83.973 2.10938 84.1406C2.22301 84.3054 2.3679 84.4432 2.54403 84.554C2.72017 84.6619 2.90483 84.7514 3.09801 84.8224C3.29119 84.8906 3.46875 84.946 3.63068 84.9886L4.51705 85.2273C4.74432 85.2869 4.99716 85.3693 5.27557 85.4744C5.55682 85.5795 5.82528 85.723 6.08097 85.9048C6.33949 86.0838 6.55256 86.3139 6.72017 86.5952C6.88778 86.8764 6.97159 87.2216 6.97159 87.6307C6.97159 88.1023 6.84801 88.5284 6.60085 88.9091C6.35653 89.2898 5.99858 89.5923 5.52699 89.8168C5.05824 90.0412 4.48864 90.1534 3.81818 90.1534C3.19318 90.1534 2.65199 90.0526 2.1946 89.8509C1.74006 89.6491 1.3821 89.3679 1.12074 89.0071C0.862216 88.6463 0.715909 88.2273 0.681818 87.75H1.77273C1.80114 88.0795 1.91193 88.3523 2.10511 88.5682C2.30114 88.7812 2.5483 88.9403 2.84659 89.0455C3.14773 89.1477 3.47159 89.1989 3.81818 89.1989C4.22159 89.1989 4.58381 89.1335 4.90483 89.0028C5.22585 88.8693 5.48011 88.6847 5.66761 88.4489C5.85511 88.2102 5.94886 87.9318 5.94886 87.6136C5.94886 87.3239 5.8679 87.0881 5.70597 86.9062C5.54403 86.7244 5.33097 86.5767 5.06676 86.4631C4.80256 86.3494 4.51705 86.25 4.21023 86.1648L3.13636 85.858C2.45455 85.6619 1.91477 85.3821 1.51705 85.0185C1.11932 84.6548 0.920455 84.179 0.920455 83.5909C0.920455 83.1023 1.05256 82.6761 1.31676 82.3125C1.58381 81.946 1.94176 81.6619 2.39062 81.4602C2.84233 81.2557 3.34659 81.1534 3.90341 81.1534C4.46591 81.1534 4.96591 81.2543 5.40341 81.456C5.84091 81.6548 6.1875 81.9276 6.44318 82.2741C6.7017 82.6207 6.83807 83.0142 6.85227 83.4545H5.82955ZM11.1446 90.1193C10.5821 90.1193 10.0807 90.0227 9.64036 89.8295C9.20286 89.6364 8.85484 89.3679 8.59632 89.0241C8.34064 88.6776 8.20143 88.2756 8.17871 87.8182H9.25257C9.2753 88.0994 9.37189 88.3423 9.54234 88.5469C9.7128 88.7486 9.93581 88.9048 10.2114 89.0156C10.4869 89.1264 10.7923 89.1818 11.1276 89.1818C11.5026 89.1818 11.835 89.1165 12.1247 88.9858C12.4145 88.8551 12.6418 88.6733 12.8065 88.4403C12.9713 88.2074 13.0537 87.9375 13.0537 87.6307C13.0537 87.3097 12.9742 87.027 12.8151 86.7827C12.656 86.5355 12.423 86.3423 12.1162 86.2031C11.8094 86.0639 11.4344 85.9943 10.9912 85.9943H10.2923V85.0568H10.9912C11.3378 85.0568 11.6418 84.9943 11.9031 84.8693C12.1673 84.7443 12.3733 84.5682 12.521 84.3409C12.6716 84.1136 12.7469 83.8466 12.7469 83.5398C12.7469 83.2443 12.6815 82.9872 12.5509 82.7685C12.4202 82.5497 12.2355 82.3793 11.9969 82.2571C11.7611 82.1349 11.4827 82.0739 11.1617 82.0739C10.8605 82.0739 10.5764 82.1293 10.3094 82.2401C10.0452 82.348 9.82928 82.5057 9.66166 82.7131C9.49405 82.9176 9.40314 83.1648 9.38893 83.4545H8.36621C8.38325 82.9972 8.52104 82.5966 8.77956 82.2528C9.03808 81.9062 9.37615 81.6364 9.79376 81.4432C10.2142 81.25 10.6759 81.1534 11.1787 81.1534C11.7185 81.1534 12.1815 81.2628 12.5679 81.4815C12.9543 81.6974 13.2512 81.983 13.4585 82.3381C13.6659 82.6932 13.7696 83.0767 13.7696 83.4886C13.7696 83.9801 13.6404 84.3991 13.3818 84.7457C13.1262 85.0923 12.7781 85.3324 12.3378 85.4659V85.5341C12.8889 85.625 13.3193 85.8594 13.629 86.2372C13.9387 86.6122 14.0935 87.0767 14.0935 87.6307C14.0935 88.1051 13.9642 88.5312 13.7057 88.9091C13.45 89.2841 13.1006 89.5795 12.6574 89.7955C12.2142 90.0114 11.71 90.1193 11.1446 90.1193ZM15.6298 90V81.2727H16.6866V85.6023H16.7889L20.7093 81.2727H22.09L18.4252 85.2102L22.09 90H20.8116L17.7775 85.9432L16.6866 87.1705V90H15.6298Z" fill="#6B7280"/>
<path d="M3.47727 130.091V119.182H4.17614V130.091H3.47727ZM5.82955 122.455C5.77841 122.023 5.57102 121.688 5.20739 121.449C4.84375 121.21 4.39773 121.091 3.86932 121.091C3.48295 121.091 3.14489 121.153 2.85511 121.278C2.56818 121.403 2.34375 121.575 2.18182 121.794C2.02273 122.013 1.94318 122.261 1.94318 122.54C1.94318 122.773 1.99858 122.973 2.10938 123.141C2.22301 123.305 2.3679 123.443 2.54403 123.554C2.72017 123.662 2.90483 123.751 3.09801 123.822C3.29119 123.891 3.46875 123.946 3.63068 123.989L4.51705 124.227C4.74432 124.287 4.99716 124.369 5.27557 124.474C5.55682 124.58 5.82528 124.723 6.08097 124.905C6.33949 125.084 6.55256 125.314 6.72017 125.595C6.88778 125.876 6.97159 126.222 6.97159 126.631C6.97159 127.102 6.84801 127.528 6.60085 127.909C6.35653 128.29 5.99858 128.592 5.52699 128.817C5.05824 129.041 4.48864 129.153 3.81818 129.153C3.19318 129.153 2.65199 129.053 2.1946 128.851C1.74006 128.649 1.3821 128.368 1.12074 128.007C0.862216 127.646 0.715909 127.227 0.681818 126.75H1.77273C1.80114 127.08 1.91193 127.352 2.10511 127.568C2.30114 127.781 2.5483 127.94 2.84659 128.045C3.14773 128.148 3.47159 128.199 3.81818 128.199C4.22159 128.199 4.58381 128.134 4.90483 128.003C5.22585 127.869 5.48011 127.685 5.66761 127.449C5.85511 127.21 5.94886 126.932 5.94886 126.614C5.94886 126.324 5.8679 126.088 5.70597 125.906C5.54403 125.724 5.33097 125.577 5.06676 125.463C4.80256 125.349 4.51705 125.25 4.21023 125.165L3.13636 124.858C2.45455 124.662 1.91477 124.382 1.51705 124.018C1.11932 123.655 0.920455 123.179 0.920455 122.591C0.920455 122.102 1.05256 121.676 1.31676 121.312C1.58381 120.946 1.94176 120.662 2.39062 120.46C2.84233 120.256 3.34659 120.153 3.90341 120.153C4.46591 120.153 4.96591 120.254 5.40341 120.456C5.84091 120.655 6.1875 120.928 6.44318 121.274C6.7017 121.621 6.83807 122.014 6.85227 122.455H5.82955ZM8.19575 129V128.233L11.0764 125.08C11.4145 124.71 11.6929 124.389 11.9117 124.116C12.1304 123.841 12.2923 123.582 12.3975 123.341C12.5054 123.097 12.5594 122.841 12.5594 122.574C12.5594 122.267 12.4855 122.001 12.3378 121.777C12.1929 121.553 11.994 121.379 11.7412 121.257C11.4884 121.135 11.2043 121.074 10.8889 121.074C10.5537 121.074 10.2611 121.143 10.0111 121.283C9.76393 121.419 9.57217 121.611 9.43581 121.858C9.30229 122.105 9.23553 122.395 9.23553 122.727H8.22984C8.22984 122.216 8.34774 121.767 8.58354 121.381C8.81933 120.994 9.14036 120.693 9.54661 120.477C9.9557 120.261 10.4145 120.153 10.923 120.153C11.4344 120.153 11.8875 120.261 12.2824 120.477C12.6773 120.693 12.9869 120.984 13.2114 121.351C13.4358 121.717 13.548 122.125 13.548 122.574C13.548 122.895 13.4898 123.209 13.3733 123.516C13.2597 123.82 13.0608 124.159 12.7767 124.534C12.4955 124.906 12.1048 125.361 11.6048 125.898L9.64462 127.994V128.062H13.7014V129H8.19575ZM15.2548 129V120.273H16.3116V124.602H16.4139L20.3343 120.273H21.715L18.0502 124.21L21.715 129H20.4366L17.4025 124.943L16.3116 126.17V129H15.2548Z" fill="#6B7280"/>
<path d="M3.47727 169.091V158.182H4.17614V169.091H3.47727ZM5.82955 161.455C5.77841 161.023 5.57102 160.688 5.20739 160.449C4.84375 160.21 4.39773 160.091 3.86932 160.091C3.48295 160.091 3.14489 160.153 2.85511 160.278C2.56818 160.403 2.34375 160.575 2.18182 160.794C2.02273 161.013 1.94318 161.261 1.94318 161.54C1.94318 161.773 1.99858 161.973 2.10938 162.141C2.22301 162.305 2.3679 162.443 2.54403 162.554C2.72017 162.662 2.90483 162.751 3.09801 162.822C3.29119 162.891 3.46875 162.946 3.63068 162.989L4.51705 163.227C4.74432 163.287 4.99716 163.369 5.27557 163.474C5.55682 163.58 5.82528 163.723 6.08097 163.905C6.33949 164.084 6.55256 164.314 6.72017 164.595C6.88778 164.876 6.97159 165.222 6.97159 165.631C6.97159 166.102 6.84801 166.528 6.60085 166.909C6.35653 167.29 5.99858 167.592 5.52699 167.817C5.05824 168.041 4.48864 168.153 3.81818 168.153C3.19318 168.153 2.65199 168.053 2.1946 167.851C1.74006 167.649 1.3821 167.368 1.12074 167.007C0.862216 166.646 0.715909 166.227 0.681818 165.75H1.77273C1.80114 166.08 1.91193 166.352 2.10511 166.568C2.30114 166.781 2.5483 166.94 2.84659 167.045C3.14773 167.148 3.47159 167.199 3.81818 167.199C4.22159 167.199 4.58381 167.134 4.90483 167.003C5.22585 166.869 5.48011 166.685 5.66761 166.449C5.85511 166.21 5.94886 165.932 5.94886 165.614C5.94886 165.324 5.8679 165.088 5.70597 164.906C5.54403 164.724 5.33097 164.577 5.06676 164.463C4.80256 164.349 4.51705 164.25 4.21023 164.165L3.13636 163.858C2.45455 163.662 1.91477 163.382 1.51705 163.018C1.11932 162.655 0.920455 162.179 0.920455 161.591C0.920455 161.102 1.05256 160.676 1.31676 160.312C1.58381 159.946 1.94176 159.662 2.39062 159.46C2.84233 159.256 3.34659 159.153 3.90341 159.153C4.46591 159.153 4.96591 159.254 5.40341 159.456C5.84091 159.655 6.1875 159.928 6.44318 160.274C6.7017 160.621 6.83807 161.014 6.85227 161.455H5.82955ZM11.2639 159.273V168H10.2071V160.381H10.156L8.0253 161.795V160.722L10.2071 159.273H11.2639ZM13.5673 168V159.273H14.6241V163.602H14.7264L18.6468 159.273H20.0275L16.3627 163.21L20.0275 168H18.7491L15.715 163.943L14.6241 165.17V168H13.5673Z" fill="#6B7280"/>
<path d="M3.47727 208.091V197.182H4.17614V208.091H3.47727ZM5.82955 200.455C5.77841 200.023 5.57102 199.688 5.20739 199.449C4.84375 199.21 4.39773 199.091 3.86932 199.091C3.48295 199.091 3.14489 199.153 2.85511 199.278C2.56818 199.403 2.34375 199.575 2.18182 199.794C2.02273 200.013 1.94318 200.261 1.94318 200.54C1.94318 200.773 1.99858 200.973 2.10938 201.141C2.22301 201.305 2.3679 201.443 2.54403 201.554C2.72017 201.662 2.90483 201.751 3.09801 201.822C3.29119 201.891 3.46875 201.946 3.63068 201.989L4.51705 202.227C4.74432 202.287 4.99716 202.369 5.27557 202.474C5.55682 202.58 5.82528 202.723 6.08097 202.905C6.33949 203.084 6.55256 203.314 6.72017 203.595C6.88778 203.876 6.97159 204.222 6.97159 204.631C6.97159 205.102 6.84801 205.528 6.60085 205.909C6.35653 206.29 5.99858 206.592 5.52699 206.817C5.05824 207.041 4.48864 207.153 3.81818 207.153C3.19318 207.153 2.65199 207.053 2.1946 206.851C1.74006 206.649 1.3821 206.368 1.12074 206.007C0.862216 205.646 0.715909 205.227 0.681818 204.75H1.77273C1.80114 205.08 1.91193 205.352 2.10511 205.568C2.30114 205.781 2.5483 205.94 2.84659 206.045C3.14773 206.148 3.47159 206.199 3.81818 206.199C4.22159 206.199 4.58381 206.134 4.90483 206.003C5.22585 205.869 5.48011 205.685 5.66761 205.449C5.85511 205.21 5.94886 204.932 5.94886 204.614C5.94886 204.324 5.8679 204.088 5.70597 203.906C5.54403 203.724 5.33097 203.577 5.06676 203.463C4.80256 203.349 4.51705 203.25 4.21023 203.165L3.13636 202.858C2.45455 202.662 1.91477 202.382 1.51705 202.018C1.11932 201.655 0.920455 201.179 0.920455 200.591C0.920455 200.102 1.05256 199.676 1.31676 199.312C1.58381 198.946 1.94176 198.662 2.39062 198.46C2.84233 198.256 3.34659 198.153 3.90341 198.153C4.46591 198.153 4.96591 198.254 5.40341 198.456C5.84091 198.655 6.1875 198.928 6.44318 199.274C6.7017 199.621 6.83807 200.014 6.85227 200.455H5.82955ZM11.0423 207.119C10.4003 207.119 9.85342 206.945 9.40172 206.595C8.95001 206.243 8.60484 205.733 8.36621 205.065C8.12757 204.395 8.00825 203.585 8.00825 202.636C8.00825 201.693 8.12757 200.888 8.36621 200.22C8.60768 199.55 8.95428 199.038 9.40598 198.686C9.86053 198.331 10.406 198.153 11.0423 198.153C11.6787 198.153 12.2227 198.331 12.6744 198.686C13.129 199.038 13.4756 199.55 13.7142 200.22C13.9557 200.888 14.0764 201.693 14.0764 202.636C14.0764 203.585 13.9571 204.395 13.7185 205.065C13.4798 205.733 13.1347 206.243 12.683 206.595C12.2313 206.945 11.6844 207.119 11.0423 207.119ZM11.0423 206.182C11.6787 206.182 12.173 205.875 12.5253 205.261C12.8776 204.648 13.0537 203.773 13.0537 202.636C13.0537 201.881 12.9727 201.237 12.8108 200.706C12.6517 200.175 12.4216 199.77 12.1205 199.491C11.8222 199.213 11.4628 199.074 11.0423 199.074C10.4117 199.074 9.91876 199.385 9.56365 200.007C9.20854 200.626 9.03098 201.503 9.03098 202.636C9.03098 203.392 9.11053 204.034 9.26962 204.562C9.42871 205.091 9.6574 205.493 9.9557 205.768C10.2568 206.044 10.619 206.182 11.0423 206.182ZM15.4892 207V198.273H16.546V202.602H16.6483L20.5687 198.273H21.9494L18.2846 202.21L21.9494 207H20.671L17.6369 202.943L16.546 204.17V207H15.4892Z" fill="#6B7280"/>
<path d="M52.3977 223.273H53.4545V229.511C53.4545 230.068 53.3523 230.541 53.1477 230.93C52.9432 231.32 52.6548 231.615 52.2827 231.817C51.9105 232.018 51.4716 232.119 50.9659 232.119C50.4886 232.119 50.0639 232.033 49.6918 231.859C49.3196 231.683 49.027 231.433 48.8139 231.109C48.6009 230.786 48.4943 230.401 48.4943 229.955H49.5341C49.5341 230.202 49.5952 230.418 49.7173 230.602C49.8423 230.784 50.0128 230.926 50.2287 231.028C50.4446 231.131 50.6903 231.182 50.9659 231.182C51.2699 231.182 51.5284 231.118 51.7415 230.99C51.9545 230.862 52.1165 230.675 52.2273 230.428C52.3409 230.178 52.3977 229.872 52.3977 229.511V223.273ZM57.0022 232.153C56.5874 232.153 56.211 232.075 55.873 231.919C55.5349 231.76 55.2664 231.531 55.0676 231.233C54.8687 230.932 54.7693 230.568 54.7693 230.142C54.7693 229.767 54.8431 229.463 54.9909 229.23C55.1386 228.994 55.336 228.81 55.5832 228.676C55.8303 228.543 56.1031 228.443 56.4014 228.378C56.7025 228.31 57.0051 228.256 57.309 228.216C57.7068 228.165 58.0292 228.126 58.2764 228.101C58.5264 228.072 58.7082 228.026 58.8218 227.96C58.9383 227.895 58.9965 227.781 58.9965 227.619V227.585C58.9965 227.165 58.8815 226.838 58.6514 226.605C58.4241 226.372 58.0789 226.256 57.6159 226.256C57.1357 226.256 56.7593 226.361 56.4866 226.571C56.2139 226.781 56.0221 227.006 55.9113 227.244L54.9568 226.903C55.1272 226.506 55.3545 226.196 55.6386 225.974C55.9255 225.75 56.238 225.594 56.5761 225.506C56.917 225.415 57.2522 225.369 57.5818 225.369C57.792 225.369 58.0335 225.395 58.3062 225.446C58.5818 225.494 58.8474 225.595 59.1031 225.749C59.3616 225.902 59.5761 226.134 59.7465 226.443C59.917 226.753 60.0022 227.168 60.0022 227.688V232H58.9965V231.114H58.9454C58.8772 231.256 58.7636 231.408 58.6045 231.57C58.4454 231.732 58.2337 231.869 57.9695 231.983C57.7053 232.097 57.3829 232.153 57.0022 232.153ZM57.1556 231.25C57.5534 231.25 57.8886 231.172 58.1613 231.016C58.4369 230.859 58.6443 230.658 58.7835 230.411C58.9255 230.163 58.9965 229.903 58.9965 229.631V228.71C58.9539 228.761 58.8602 228.808 58.7153 228.851C58.5732 228.891 58.4085 228.926 58.221 228.957C58.0363 228.986 57.8559 229.011 57.6798 229.034C57.5065 229.054 57.3659 229.071 57.2579 229.085C56.9965 229.119 56.7522 229.175 56.5249 229.251C56.3005 229.325 56.1187 229.437 55.9795 229.588C55.8431 229.736 55.7749 229.937 55.7749 230.193C55.7749 230.543 55.9042 230.807 56.1627 230.986C56.4241 231.162 56.7551 231.25 57.1556 231.25ZM62.4835 228.062V232H61.4778V225.455H62.4494V226.477H62.5346C62.688 226.145 62.921 225.878 63.2335 225.676C63.546 225.472 63.9494 225.369 64.4437 225.369C64.8869 225.369 65.2747 225.46 65.6071 225.642C65.9394 225.821 66.198 226.094 66.3826 226.46C66.5673 226.824 66.6596 227.284 66.6596 227.841V232H65.6539V227.909C65.6539 227.395 65.5204 226.994 65.2534 226.707C64.9863 226.418 64.6198 226.273 64.1539 226.273C63.8329 226.273 63.546 226.342 63.2931 226.482C63.0431 226.621 62.8457 226.824 62.7008 227.091C62.5559 227.358 62.4835 227.682 62.4835 228.062Z" fill="#6B7280"/>
<path d="M121.148 232V223.273H126.381V224.21H122.205V227.159H125.989V228.097H122.205V232H121.148ZM129.958 232.136C129.328 232.136 128.783 231.997 128.326 231.719C127.872 231.438 127.521 231.045 127.274 230.543C127.029 230.037 126.907 229.449 126.907 228.778C126.907 228.108 127.029 227.517 127.274 227.006C127.521 226.491 127.864 226.091 128.305 225.804C128.748 225.514 129.265 225.369 129.856 225.369C130.197 225.369 130.533 225.426 130.866 225.54C131.198 225.653 131.501 225.838 131.774 226.094C132.046 226.347 132.264 226.682 132.426 227.099C132.587 227.517 132.668 228.031 132.668 228.642V229.068H127.623V228.199H131.646C131.646 227.83 131.572 227.5 131.424 227.21C131.279 226.92 131.072 226.692 130.802 226.524C130.535 226.357 130.22 226.273 129.856 226.273C129.455 226.273 129.109 226.372 128.816 226.571C128.526 226.767 128.303 227.023 128.147 227.338C127.991 227.653 127.913 227.991 127.913 228.352V228.932C127.913 229.426 127.998 229.845 128.168 230.189C128.342 230.53 128.582 230.79 128.889 230.969C129.195 231.145 129.552 231.233 129.958 231.233C130.222 231.233 130.461 231.196 130.674 231.122C130.89 231.045 131.076 230.932 131.232 230.781C131.389 230.628 131.509 230.437 131.595 230.21L132.566 230.483C132.464 230.812 132.292 231.102 132.051 231.352C131.809 231.599 131.511 231.793 131.156 231.932C130.801 232.068 130.401 232.136 129.958 232.136ZM133.975 232V223.273H134.98V226.494H135.066C135.139 226.381 135.242 226.236 135.372 226.06C135.506 225.881 135.696 225.722 135.943 225.582C136.193 225.44 136.531 225.369 136.958 225.369C137.509 225.369 137.994 225.507 138.415 225.783C138.835 226.058 139.164 226.449 139.399 226.955C139.635 227.46 139.753 228.057 139.753 228.744C139.753 229.438 139.635 230.038 139.399 230.547C139.164 231.053 138.837 231.445 138.419 231.723C138.002 231.999 137.52 232.136 136.975 232.136C136.554 232.136 136.218 232.067 135.965 231.928C135.712 231.786 135.517 231.625 135.381 231.446C135.244 231.264 135.139 231.114 135.066 230.994H134.946V232H133.975ZM134.963 228.727C134.963 229.222 135.036 229.658 135.181 230.036C135.325 230.411 135.537 230.705 135.816 230.918C136.094 231.128 136.435 231.233 136.838 231.233C137.259 231.233 137.61 231.122 137.891 230.901C138.175 230.676 138.388 230.375 138.53 229.997C138.675 229.616 138.747 229.193 138.747 228.727C138.747 228.267 138.676 227.852 138.534 227.483C138.395 227.111 138.183 226.817 137.899 226.601C137.618 226.382 137.264 226.273 136.838 226.273C136.429 226.273 136.085 226.376 135.807 226.584C135.529 226.788 135.318 227.075 135.176 227.445C135.034 227.811 134.963 228.239 134.963 228.727Z" fill="#6B7280"/>
<path d="M194.239 223.273H195.5L198.466 230.517H198.568L201.534 223.273H202.795V232H201.807V225.369H201.722L198.994 232H198.04L195.313 225.369H195.227V232H194.239V223.273ZM206.344 232.153C205.929 232.153 205.553 232.075 205.215 231.919C204.877 231.76 204.608 231.531 204.41 231.233C204.211 230.932 204.111 230.568 204.111 230.142C204.111 229.767 204.185 229.463 204.333 229.23C204.481 228.994 204.678 228.81 204.925 228.676C205.172 228.543 205.445 228.443 205.743 228.378C206.044 228.31 206.347 228.256 206.651 228.216C207.049 228.165 207.371 228.126 207.618 228.101C207.868 228.072 208.05 228.026 208.164 227.96C208.28 227.895 208.339 227.781 208.339 227.619V227.585C208.339 227.165 208.223 226.838 207.993 226.605C207.766 226.372 207.421 226.256 206.958 226.256C206.478 226.256 206.101 226.361 205.829 226.571C205.556 226.781 205.364 227.006 205.253 227.244L204.299 226.903C204.469 226.506 204.696 226.196 204.981 225.974C205.267 225.75 205.58 225.594 205.918 225.506C206.259 225.415 206.594 225.369 206.924 225.369C207.134 225.369 207.375 225.395 207.648 225.446C207.924 225.494 208.189 225.595 208.445 225.749C208.704 225.902 208.918 226.134 209.089 226.443C209.259 226.753 209.344 227.168 209.344 227.688V232H208.339V231.114H208.287C208.219 231.256 208.106 231.408 207.946 231.57C207.787 231.732 207.576 231.869 207.312 231.983C207.047 232.097 206.725 232.153 206.344 232.153ZM206.498 231.25C206.895 231.25 207.231 231.172 207.503 231.016C207.779 230.859 207.986 230.658 208.125 230.411C208.267 230.163 208.339 229.903 208.339 229.631V228.71C208.296 228.761 208.202 228.808 208.057 228.851C207.915 228.891 207.75 228.926 207.563 228.957C207.378 228.986 207.198 229.011 207.022 229.034C206.848 229.054 206.708 229.071 206.6 229.085C206.339 229.119 206.094 229.175 205.867 229.251C205.642 229.325 205.461 229.437 205.321 229.588C205.185 229.736 205.117 229.937 205.117 230.193C205.117 230.543 205.246 230.807 205.505 230.986C205.766 231.162 206.097 231.25 206.498 231.25ZM210.82 232V225.455H211.791V226.443H211.86C211.979 226.119 212.195 225.857 212.507 225.655C212.82 225.453 213.172 225.352 213.564 225.352C213.638 225.352 213.73 225.354 213.841 225.357C213.952 225.359 214.036 225.364 214.093 225.369V226.392C214.058 226.384 213.98 226.371 213.858 226.354C213.739 226.334 213.612 226.324 213.479 226.324C213.161 226.324 212.877 226.391 212.627 226.524C212.379 226.655 212.183 226.837 212.039 227.07C211.896 227.3 211.825 227.562 211.825 227.858V232H210.82Z" fill="#6B7280"/>
<path d="M268.687 232H267.58L270.784 223.273H271.875L275.08 232H273.972L271.364 224.653H271.295L268.687 232ZM269.097 228.591H273.562V229.528H269.097V228.591ZM275.943 234.455V225.455H276.914V226.494H277.033C277.107 226.381 277.21 226.236 277.34 226.06C277.474 225.881 277.664 225.722 277.911 225.582C278.161 225.44 278.499 225.369 278.925 225.369C279.477 225.369 279.962 225.507 280.383 225.783C280.803 226.058 281.131 226.449 281.367 226.955C281.603 227.46 281.721 228.057 281.721 228.744C281.721 229.438 281.603 230.038 281.367 230.547C281.131 231.053 280.805 231.445 280.387 231.723C279.97 231.999 279.488 232.136 278.943 232.136C278.522 232.136 278.185 232.067 277.933 231.928C277.68 231.786 277.485 231.625 277.349 231.446C277.212 231.264 277.107 231.114 277.033 230.994H276.948V234.455H275.943ZM276.931 228.727C276.931 229.222 277.004 229.658 277.149 230.036C277.293 230.411 277.505 230.705 277.783 230.918C278.062 231.128 278.403 231.233 278.806 231.233C279.227 231.233 279.577 231.122 279.859 230.901C280.143 230.676 280.356 230.375 280.498 229.997C280.643 229.616 280.715 229.193 280.715 228.727C280.715 228.267 280.644 227.852 280.502 227.483C280.363 227.111 280.151 226.817 279.867 226.601C279.586 226.382 279.232 226.273 278.806 226.273C278.397 226.273 278.053 226.376 277.775 226.584C277.497 226.788 277.286 227.075 277.144 227.445C277.002 227.811 276.931 228.239 276.931 228.727ZM282.895 232V225.455H283.867V226.443H283.935C284.054 226.119 284.27 225.857 284.583 225.655C284.895 225.453 285.247 225.352 285.639 225.352C285.713 225.352 285.806 225.354 285.916 225.357C286.027 225.359 286.111 225.364 286.168 225.369V226.392C286.134 226.384 286.056 226.371 285.933 226.354C285.814 226.334 285.688 226.324 285.554 226.324C285.236 226.324 284.952 226.391 284.702 226.524C284.455 226.655 284.259 226.837 284.114 227.07C283.972 227.3 283.901 227.562 283.901 227.858V232H282.895Z" fill="#6B7280"/>
<path d="M340.42 223.273H341.682L344.648 230.517H344.75L347.716 223.273H348.977V232H347.989V225.369H347.903L345.176 232H344.222L341.494 225.369H341.409V232H340.42V223.273ZM352.526 232.153C352.111 232.153 351.735 232.075 351.397 231.919C351.059 231.76 350.79 231.531 350.591 231.233C350.392 230.932 350.293 230.568 350.293 230.142C350.293 229.767 350.367 229.463 350.515 229.23C350.662 228.994 350.86 228.81 351.107 228.676C351.354 228.543 351.627 228.443 351.925 228.378C352.226 228.31 352.529 228.256 352.833 228.216C353.231 228.165 353.553 228.126 353.8 228.101C354.05 228.072 354.232 228.026 354.346 227.96C354.462 227.895 354.52 227.781 354.52 227.619V227.585C354.52 227.165 354.405 226.838 354.175 226.605C353.948 226.372 353.603 226.256 353.14 226.256C352.66 226.256 352.283 226.361 352.01 226.571C351.738 226.781 351.546 227.006 351.435 227.244L350.481 226.903C350.651 226.506 350.878 226.196 351.162 225.974C351.449 225.75 351.762 225.594 352.1 225.506C352.441 225.415 352.776 225.369 353.106 225.369C353.316 225.369 353.557 225.395 353.83 225.446C354.106 225.494 354.371 225.595 354.627 225.749C354.885 225.902 355.1 226.134 355.27 226.443C355.441 226.753 355.526 227.168 355.526 227.688V232H354.52V231.114H354.469C354.401 231.256 354.287 231.408 354.128 231.57C353.969 231.732 353.758 231.869 353.493 231.983C353.229 232.097 352.907 232.153 352.526 232.153ZM352.679 231.25C353.077 231.25 353.412 231.172 353.685 231.016C353.961 230.859 354.168 230.658 354.307 230.411C354.449 230.163 354.52 229.903 354.52 229.631V228.71C354.478 228.761 354.384 228.808 354.239 228.851C354.097 228.891 353.932 228.926 353.745 228.957C353.56 228.986 353.38 229.011 353.204 229.034C353.03 229.054 352.89 229.071 352.782 229.085C352.52 229.119 352.276 229.175 352.049 229.251C351.824 229.325 351.642 229.437 351.503 229.588C351.367 229.736 351.299 229.937 351.299 230.193C351.299 230.543 351.428 230.807 351.687 230.986C351.948 231.162 352.279 231.25 352.679 231.25ZM357.415 234.455C357.245 234.455 357.093 234.44 356.959 234.412C356.825 234.386 356.733 234.361 356.682 234.335L356.938 233.449C357.182 233.511 357.398 233.534 357.585 233.517C357.773 233.5 357.939 233.416 358.084 233.266C358.232 233.118 358.367 232.878 358.489 232.545L358.676 232.034L356.256 225.455H357.347L359.154 230.67H359.222L361.029 225.455H362.12L359.341 232.955C359.216 233.293 359.061 233.572 358.877 233.794C358.692 234.018 358.477 234.185 358.233 234.293C357.992 234.401 357.719 234.455 357.415 234.455Z" fill="#6B7280"/>
<path d="M419.852 223.273H420.909V229.511C420.909 230.068 420.807 230.541 420.602 230.93C420.398 231.32 420.109 231.615 419.737 231.817C419.365 232.018 418.926 232.119 418.42 232.119C417.943 232.119 417.519 232.033 417.146 231.859C416.774 231.683 416.482 231.433 416.269 231.109C416.055 230.786 415.949 230.401 415.949 229.955H416.989C416.989 230.202 417.05 230.418 417.172 230.602C417.297 230.784 417.467 230.926 417.683 231.028C417.899 231.131 418.145 231.182 418.42 231.182C418.724 231.182 418.983 231.118 419.196 230.99C419.409 230.862 419.571 230.675 419.682 230.428C419.795 230.178 419.852 229.872 419.852 229.511V223.273ZM426.656 229.324V225.455H427.661V232H426.656V230.892H426.587C426.434 231.224 426.195 231.507 425.872 231.74C425.548 231.97 425.139 232.085 424.644 232.085C424.235 232.085 423.872 231.996 423.553 231.817C423.235 231.635 422.985 231.362 422.803 230.999C422.622 230.632 422.531 230.17 422.531 229.614V225.455H423.536V229.545C423.536 230.023 423.67 230.403 423.937 230.688C424.207 230.972 424.551 231.114 424.968 231.114C425.218 231.114 425.472 231.05 425.731 230.922C425.992 230.794 426.211 230.598 426.387 230.334C426.566 230.07 426.656 229.733 426.656 229.324ZM430.149 228.062V232H429.143V225.455H430.115V226.477H430.2C430.354 226.145 430.587 225.878 430.899 225.676C431.212 225.472 431.615 225.369 432.109 225.369C432.552 225.369 432.94 225.46 433.273 225.642C433.605 225.821 433.863 226.094 434.048 226.46C434.233 226.824 434.325 227.284 434.325 227.841V232H433.319V227.909C433.319 227.395 433.186 226.994 432.919 226.707C432.652 226.418 432.285 226.273 431.819 226.273C431.498 226.273 431.212 226.342 430.959 226.482C430.709 226.621 430.511 226.824 430.366 227.091C430.221 227.358 430.149 227.682 430.149 228.062Z" fill="#6B7280"/>
<path d="M491.943 223.273H493V229.511C493 230.068 492.898 230.541 492.693 230.93C492.489 231.32 492.2 231.615 491.828 231.817C491.456 232.018 491.017 232.119 490.511 232.119C490.034 232.119 489.609 232.033 489.237 231.859C488.865 231.683 488.572 231.433 488.359 231.109C488.146 230.786 488.04 230.401 488.04 229.955H489.08C489.08 230.202 489.141 230.418 489.263 230.602C489.388 230.784 489.558 230.926 489.774 231.028C489.99 231.131 490.236 231.182 490.511 231.182C490.815 231.182 491.074 231.118 491.287 230.99C491.5 230.862 491.662 230.675 491.773 230.428C491.886 230.178 491.943 229.872 491.943 229.511V223.273ZM498.747 229.324V225.455H499.752V232H498.747V230.892H498.678C498.525 231.224 498.286 231.507 497.962 231.74C497.639 231.97 497.23 232.085 496.735 232.085C496.326 232.085 495.962 231.996 495.644 231.817C495.326 231.635 495.076 231.362 494.894 230.999C494.712 230.632 494.622 230.17 494.622 229.614V225.455H495.627V229.545C495.627 230.023 495.761 230.403 496.028 230.688C496.298 230.972 496.641 231.114 497.059 231.114C497.309 231.114 497.563 231.05 497.822 230.922C498.083 230.794 498.302 230.598 498.478 230.334C498.657 230.07 498.747 229.733 498.747 229.324ZM502.24 223.273V232H501.234V223.273H502.24Z" fill="#6B7280"/>
<path d="M557.051 232H555.943L559.148 223.273H560.239L563.443 232H562.335L559.727 224.653H559.659L557.051 232ZM557.46 228.591H561.926V229.528H557.46V228.591ZM568.431 229.324V225.455H569.437V232H568.431V230.892H568.363C568.21 231.224 567.971 231.507 567.647 231.74C567.323 231.97 566.914 232.085 566.42 232.085C566.011 232.085 565.647 231.996 565.329 231.817C565.011 231.635 564.761 231.362 564.579 230.999C564.397 230.632 564.306 230.17 564.306 229.614V225.455H565.312V229.545C565.312 230.023 565.445 230.403 565.712 230.688C565.982 230.972 566.326 231.114 566.744 231.114C566.994 231.114 567.248 231.05 567.506 230.922C567.768 230.794 567.987 230.598 568.163 230.334C568.342 230.07 568.431 229.733 568.431 229.324ZM573.561 234.591C573.075 234.591 572.657 234.528 572.308 234.403C571.959 234.281 571.667 234.119 571.434 233.918C571.204 233.719 571.021 233.506 570.885 233.278L571.686 232.716C571.777 232.835 571.892 232.972 572.031 233.125C572.17 233.281 572.361 233.416 572.602 233.53C572.846 233.646 573.166 233.705 573.561 233.705C574.089 233.705 574.525 233.577 574.869 233.321C575.213 233.065 575.385 232.665 575.385 232.119V230.79H575.3C575.226 230.909 575.121 231.057 574.984 231.233C574.851 231.406 574.657 231.561 574.405 231.697C574.155 231.831 573.817 231.898 573.39 231.898C572.862 231.898 572.388 231.773 571.967 231.523C571.55 231.273 571.219 230.909 570.974 230.432C570.733 229.955 570.612 229.375 570.612 228.693C570.612 228.023 570.73 227.439 570.966 226.942C571.202 226.442 571.53 226.055 571.95 225.783C572.371 225.507 572.856 225.369 573.407 225.369C573.834 225.369 574.172 225.44 574.422 225.582C574.675 225.722 574.868 225.881 575.001 226.06C575.138 226.236 575.243 226.381 575.317 226.494H575.419V225.455H576.39V232.188C576.39 232.75 576.263 233.207 576.007 233.56C575.754 233.915 575.413 234.175 574.984 234.339C574.558 234.507 574.084 234.591 573.561 234.591ZM573.527 230.994C573.93 230.994 574.271 230.902 574.55 230.717C574.828 230.533 575.04 230.267 575.184 229.92C575.329 229.574 575.402 229.159 575.402 228.676C575.402 228.205 575.331 227.788 575.189 227.428C575.047 227.067 574.836 226.784 574.558 226.58C574.28 226.375 573.936 226.273 573.527 226.273C573.101 226.273 572.746 226.381 572.461 226.597C572.18 226.812 571.969 227.102 571.827 227.466C571.687 227.83 571.618 228.233 571.618 228.676C571.618 229.131 571.689 229.533 571.831 229.882C571.976 230.229 572.189 230.501 572.47 230.7C572.754 230.896 573.106 230.994 573.527 230.994Z" fill="#6B7280"/>
<path d="M635.557 225.455C635.506 225.023 635.298 224.688 634.935 224.449C634.571 224.21 634.125 224.091 633.597 224.091C633.21 224.091 632.872 224.153 632.582 224.278C632.295 224.403 632.071 224.575 631.909 224.794C631.75 225.013 631.67 225.261 631.67 225.54C631.67 225.773 631.726 225.973 631.837 226.141C631.95 226.305 632.095 226.443 632.271 226.554C632.447 226.662 632.632 226.751 632.825 226.822C633.018 226.891 633.196 226.946 633.358 226.989L634.244 227.227C634.472 227.287 634.724 227.369 635.003 227.474C635.284 227.58 635.553 227.723 635.808 227.905C636.067 228.084 636.28 228.314 636.447 228.595C636.615 228.876 636.699 229.222 636.699 229.631C636.699 230.102 636.575 230.528 636.328 230.909C636.084 231.29 635.726 231.592 635.254 231.817C634.786 232.041 634.216 232.153 633.545 232.153C632.92 232.153 632.379 232.053 631.922 231.851C631.467 231.649 631.109 231.368 630.848 231.007C630.59 230.646 630.443 230.227 630.409 229.75H631.5C631.528 230.08 631.639 230.352 631.832 230.568C632.028 230.781 632.276 230.94 632.574 231.045C632.875 231.148 633.199 231.199 633.545 231.199C633.949 231.199 634.311 231.134 634.632 231.003C634.953 230.869 635.207 230.685 635.395 230.449C635.582 230.21 635.676 229.932 635.676 229.614C635.676 229.324 635.595 229.088 635.433 228.906C635.271 228.724 635.058 228.577 634.794 228.463C634.53 228.349 634.244 228.25 633.938 228.165L632.864 227.858C632.182 227.662 631.642 227.382 631.244 227.018C630.847 226.655 630.648 226.179 630.648 225.591C630.648 225.102 630.78 224.676 631.044 224.312C631.311 223.946 631.669 223.662 632.118 223.46C632.57 223.256 633.074 223.153 633.631 223.153C634.193 223.153 634.693 223.254 635.131 223.456C635.568 223.655 635.915 223.928 636.17 224.274C636.429 224.621 636.565 225.014 636.58 225.455H635.557ZM640.684 232.136C640.054 232.136 639.51 231.997 639.052 231.719C638.598 231.438 638.247 231.045 638 230.543C637.755 230.037 637.633 229.449 637.633 228.778C637.633 228.108 637.755 227.517 638 227.006C638.247 226.491 638.591 226.091 639.031 225.804C639.474 225.514 639.991 225.369 640.582 225.369C640.923 225.369 641.26 225.426 641.592 225.54C641.924 225.653 642.227 225.838 642.5 226.094C642.772 226.347 642.99 226.682 643.152 227.099C643.314 227.517 643.395 228.031 643.395 228.642V229.068H638.349V228.199H642.372C642.372 227.83 642.298 227.5 642.15 227.21C642.005 226.92 641.798 226.692 641.528 226.524C641.261 226.357 640.946 226.273 640.582 226.273C640.182 226.273 639.835 226.372 639.542 226.571C639.253 226.767 639.03 227.023 638.873 227.338C638.717 227.653 638.639 227.991 638.639 228.352V228.932C638.639 229.426 638.724 229.845 638.895 230.189C639.068 230.53 639.308 230.79 639.615 230.969C639.922 231.145 640.278 231.233 640.684 231.233C640.949 231.233 641.187 231.196 641.4 231.122C641.616 231.045 641.802 230.932 641.959 230.781C642.115 230.628 642.236 230.437 642.321 230.21L643.292 230.483C643.19 230.812 643.018 231.102 642.777 231.352C642.535 231.599 642.237 231.793 641.882 231.932C641.527 232.068 641.128 232.136 640.684 232.136ZM644.564 234.455V225.455H645.536V226.494H645.655C645.729 226.381 645.832 226.236 645.962 226.06C646.096 225.881 646.286 225.722 646.533 225.582C646.783 225.44 647.121 225.369 647.547 225.369C648.099 225.369 648.584 225.507 649.005 225.783C649.425 226.058 649.753 226.449 649.989 226.955C650.225 227.46 650.343 228.057 650.343 228.744C650.343 229.438 650.225 230.038 649.989 230.547C649.753 231.053 649.427 231.445 649.009 231.723C648.591 231.999 648.11 232.136 647.564 232.136C647.144 232.136 646.807 232.067 646.555 231.928C646.302 231.786 646.107 231.625 645.971 231.446C645.834 231.264 645.729 231.114 645.655 230.994H645.57V234.455H644.564ZM645.553 228.727C645.553 229.222 645.626 229.658 645.77 230.036C645.915 230.411 646.127 230.705 646.405 230.918C646.684 231.128 647.025 231.233 647.428 231.233C647.849 231.233 648.199 231.122 648.481 230.901C648.765 230.676 648.978 230.375 649.12 229.997C649.265 229.616 649.337 229.193 649.337 228.727C649.337 228.267 649.266 227.852 649.124 227.483C648.985 227.111 648.773 226.817 648.489 226.601C648.208 226.382 647.854 226.273 647.428 226.273C647.019 226.273 646.675 226.376 646.397 226.584C646.118 226.788 645.908 227.075 645.766 227.445C645.624 227.811 645.553 228.239 645.553 228.727Z" fill="#6B7280"/>
<path d="M712.239 227.636C712.239 228.557 712.072 229.352 711.74 230.023C711.408 230.693 710.952 231.21 710.372 231.574C709.793 231.938 709.131 232.119 708.386 232.119C707.642 232.119 706.98 231.938 706.401 231.574C705.821 231.21 705.365 230.693 705.033 230.023C704.7 229.352 704.534 228.557 704.534 227.636C704.534 226.716 704.7 225.92 705.033 225.25C705.365 224.58 705.821 224.062 706.401 223.699C706.98 223.335 707.642 223.153 708.386 223.153C709.131 223.153 709.793 223.335 710.372 223.699C710.952 224.062 711.408 224.58 711.74 225.25C712.072 225.92 712.239 226.716 712.239 227.636ZM711.216 227.636C711.216 226.881 711.09 226.243 710.837 225.723C710.587 225.203 710.247 224.81 709.818 224.543C709.392 224.276 708.915 224.142 708.386 224.142C707.858 224.142 707.379 224.276 706.95 224.543C706.524 224.81 706.185 225.203 705.932 225.723C705.682 226.243 705.557 226.881 705.557 227.636C705.557 228.392 705.682 229.03 705.932 229.55C706.185 230.07 706.524 230.463 706.95 230.73C707.379 230.997 707.858 231.131 708.386 231.131C708.915 231.131 709.392 230.997 709.818 230.73C710.247 230.463 710.587 230.07 710.837 229.55C711.09 229.03 711.216 228.392 711.216 227.636ZM716.178 232.136C715.565 232.136 715.036 231.991 714.593 231.702C714.15 231.412 713.809 231.013 713.57 230.504C713.332 229.996 713.212 229.415 713.212 228.761C713.212 228.097 713.335 227.51 713.579 227.001C713.826 226.49 714.17 226.091 714.61 225.804C715.053 225.514 715.57 225.369 716.161 225.369C716.622 225.369 717.036 225.455 717.406 225.625C717.775 225.795 718.078 226.034 718.313 226.341C718.549 226.648 718.695 227.006 718.752 227.415H717.747C717.67 227.116 717.499 226.852 717.235 226.622C716.974 226.389 716.622 226.273 716.178 226.273C715.786 226.273 715.443 226.375 715.147 226.58C714.855 226.781 714.626 227.067 714.461 227.436C714.299 227.803 714.218 228.233 714.218 228.727C714.218 229.233 714.298 229.673 714.457 230.048C714.619 230.423 714.846 230.714 715.139 230.922C715.434 231.129 715.781 231.233 716.178 231.233C716.44 231.233 716.677 231.188 716.89 231.097C717.103 231.006 717.284 230.875 717.431 230.705C717.579 230.534 717.684 230.33 717.747 230.091H718.752C718.695 230.477 718.555 230.825 718.33 231.135C718.109 231.442 717.815 231.686 717.448 231.868C717.085 232.047 716.661 232.136 716.178 232.136ZM722.709 225.455V226.307H719.317V225.455H722.709ZM720.306 223.886H721.311V230.125C721.311 230.409 721.352 230.622 721.435 230.764C721.52 230.903 721.628 230.997 721.759 231.045C721.892 231.091 722.033 231.114 722.181 231.114C722.291 231.114 722.382 231.108 722.453 231.097C722.524 231.082 722.581 231.071 722.624 231.062L722.828 231.966C722.76 231.991 722.665 232.017 722.543 232.043C722.421 232.071 722.266 232.085 722.078 232.085C721.794 232.085 721.516 232.024 721.243 231.902C720.973 231.78 720.749 231.594 720.57 231.344C720.394 231.094 720.306 230.778 720.306 230.398V223.886Z" fill="#6B7280"/>
<path d="M783.886 223.273V232H782.864L778.108 225.148H778.023V232H776.966V223.273H777.989L782.761 230.142H782.847V223.273H783.886ZM788.164 232.136C787.573 232.136 787.055 231.996 786.608 231.714C786.165 231.433 785.819 231.04 785.569 230.534C785.322 230.028 785.198 229.437 785.198 228.761C785.198 228.08 785.322 227.484 785.569 226.976C785.819 226.467 786.165 226.072 786.608 225.791C787.055 225.51 787.573 225.369 788.164 225.369C788.755 225.369 789.272 225.51 789.715 225.791C790.161 226.072 790.508 226.467 790.755 226.976C791.005 227.484 791.13 228.08 791.13 228.761C791.13 229.437 791.005 230.028 790.755 230.534C790.508 231.04 790.161 231.433 789.715 231.714C789.272 231.996 788.755 232.136 788.164 232.136ZM788.164 231.233C788.613 231.233 788.982 231.118 789.272 230.888C789.562 230.658 789.776 230.355 789.915 229.98C790.055 229.605 790.124 229.199 790.124 228.761C790.124 228.324 790.055 227.916 789.915 227.538C789.776 227.161 789.562 226.855 789.272 226.622C788.982 226.389 788.613 226.273 788.164 226.273C787.715 226.273 787.346 226.389 787.056 226.622C786.766 226.855 786.552 227.161 786.412 227.538C786.273 227.916 786.204 228.324 786.204 228.761C786.204 229.199 786.273 229.605 786.412 229.98C786.552 230.355 786.766 230.658 787.056 230.888C787.346 231.118 787.715 231.233 788.164 231.233ZM797.423 225.455L795.002 232H793.98L791.559 225.455H792.65L794.457 230.67H794.525L796.332 225.455H797.423Z" fill="#6B7280"/>
<path d="M853.75 232H851.057V223.273H853.869C854.716 223.273 855.44 223.447 856.043 223.797C856.645 224.143 857.107 224.642 857.428 225.293C857.749 225.94 857.909 226.716 857.909 227.619C857.909 228.528 857.747 229.311 857.423 229.967C857.1 230.621 856.628 231.124 856.009 231.476C855.389 231.825 854.636 232 853.75 232ZM852.114 231.062H853.682C854.404 231.062 855.002 230.923 855.476 230.645C855.95 230.366 856.304 229.97 856.537 229.456C856.77 228.942 856.886 228.33 856.886 227.619C856.886 226.915 856.771 226.308 856.541 225.8C856.311 225.288 855.967 224.896 855.51 224.624C855.053 224.348 854.483 224.21 853.801 224.21H852.114V231.062ZM861.93 232.136C861.299 232.136 860.755 231.997 860.298 231.719C859.843 231.438 859.492 231.045 859.245 230.543C859.001 230.037 858.879 229.449 858.879 228.778C858.879 228.108 859.001 227.517 859.245 227.006C859.492 226.491 859.836 226.091 860.276 225.804C860.72 225.514 861.237 225.369 861.828 225.369C862.169 225.369 862.505 225.426 862.838 225.54C863.17 225.653 863.473 225.838 863.745 226.094C864.018 226.347 864.235 226.682 864.397 227.099C864.559 227.517 864.64 228.031 864.64 228.642V229.068H859.595V228.199H863.617C863.617 227.83 863.544 227.5 863.396 227.21C863.251 226.92 863.044 226.692 862.774 226.524C862.507 226.357 862.191 226.273 861.828 226.273C861.427 226.273 861.08 226.372 860.788 226.571C860.498 226.767 860.275 227.023 860.119 227.338C859.963 227.653 859.884 227.991 859.884 228.352V228.932C859.884 229.426 859.97 229.845 860.14 230.189C860.313 230.53 860.553 230.79 860.86 230.969C861.167 231.145 861.524 231.233 861.93 231.233C862.194 231.233 862.433 231.196 862.646 231.122C862.862 231.045 863.048 230.932 863.204 230.781C863.36 230.628 863.481 230.437 863.566 230.21L864.538 230.483C864.436 230.812 864.264 231.102 864.022 231.352C863.781 231.599 863.482 231.793 863.127 231.932C862.772 232.068 862.373 232.136 861.93 232.136ZM868.469 232.136C867.855 232.136 867.327 231.991 866.884 231.702C866.441 231.412 866.1 231.013 865.861 230.504C865.622 229.996 865.503 229.415 865.503 228.761C865.503 228.097 865.625 227.51 865.87 227.001C866.117 226.49 866.461 226.091 866.901 225.804C867.344 225.514 867.861 225.369 868.452 225.369C868.912 225.369 869.327 225.455 869.696 225.625C870.066 225.795 870.368 226.034 870.604 226.341C870.84 226.648 870.986 227.006 871.043 227.415H870.037C869.961 227.116 869.79 226.852 869.526 226.622C869.264 226.389 868.912 226.273 868.469 226.273C868.077 226.273 867.733 226.375 867.438 226.58C867.145 226.781 866.916 227.067 866.752 227.436C866.59 227.803 866.509 228.233 866.509 228.727C866.509 229.233 866.588 229.673 866.747 230.048C866.909 230.423 867.137 230.714 867.429 230.922C867.725 231.129 868.071 231.233 868.469 231.233C868.73 231.233 868.968 231.188 869.181 231.097C869.394 231.006 869.574 230.875 869.722 230.705C869.87 230.534 869.975 230.33 870.037 230.091H871.043C870.986 230.477 870.845 230.825 870.621 231.135C870.399 231.442 870.105 231.686 869.739 231.868C869.375 232.047 868.952 232.136 868.469 232.136Z" fill="#6B7280"/>
<line x1="207" y1="7.50006" x2="872" y2="7.5" stroke="#F3F4F6" stroke-dasharray="4 4"/>
<line x1="207" y1="45.5001" x2="872" y2="45.5" stroke="#F3F4F6" stroke-dasharray="4 4"/>
<line x1="207" y1="83.5001" x2="872" y2="83.5" stroke="#F3F4F6" stroke-dasharray="4 4"/>
<line x1="207" y1="121.5" x2="872" y2="121.5" stroke="#F3F4F6" stroke-dasharray="4 4"/>
<line x1="207" y1="159.5" x2="872" y2="159.5" stroke="#F3F4F6" stroke-dasharray="4 4"/>
<line x1="207" y1="197.5" x2="872" y2="197.5" stroke="#F3F4F6" stroke-dasharray="4 4"/>
<path fill-rule="evenodd" clip-rule="evenodd" d="M48 140.287H54.18C59.6733 140.287 72.0333 140.287 83.7067 137.247C96.0667 134.208 107.74 128.128 119.413 109.891C131.773 91.653 143.447 61.2568 155.807 70.3757C167.48 79.4945 179.153 128.128 191.513 140.287C203.187 152.445 214.86 128.128 227.22 109.891C238.893 91.653 251.253 79.4945 262.927 82.5342C274.6 85.5738 286.96 103.811 298.633 109.891C310.993 115.97 322.667 109.891 334.34 119.01C346.7 128.128 358.373 152.445 370.733 152.445C382.407 152.445 394.08 128.128 406.44 106.851C418.113 85.5738 430.473 67.3361 442.147 79.4945C453.82 91.653 466.18 134.208 477.853 128.128C489.527 122.049 501.887 67.3361 513.56 39.9795C525.92 12.623 537.593 12.623 549.267 24.7814C561.627 36.9399 573.3 61.2568 585.66 82.5342C597.333 103.811 609.007 122.049 621.367 140.287C633.04 158.525 645.4 176.762 657.073 164.604C668.747 152.445 681.107 109.891 692.78 103.811C705.14 97.7322 716.813 128.128 728.487 131.168C740.847 134.208 752.52 109.891 764.193 112.93C776.553 115.97 788.227 146.366 800.587 143.327C812.26 140.287 823.933 103.811 836.293 82.5342C847.967 61.2568 860.327 55.1776 865.82 52.138L872 49.0984V195H865.82C860.327 195 847.967 195 836.293 195C823.933 195 812.26 195 800.587 195C788.227 195 776.553 195 764.193 195C752.52 195 740.847 195 728.487 195C716.813 195 705.14 195 692.78 195C681.107 195 668.747 195 657.073 195C645.4 195 633.04 195 621.367 195C609.007 195 597.333 195 585.66 195C573.3 195 561.627 195 549.267 195C537.593 195 525.92 195 513.56 195C501.887 195 489.527 195 477.853 195C466.18 195 453.82 195 442.147 195C430.473 195 418.113 195 406.44 195C394.08 195 382.407 195 370.733 195C358.373 195 346.7 195 334.34 195C322.667 195 310.993 195 298.633 195C286.96 195 274.6 195 262.927 195C251.253 195 238.893 195 227.22 195C214.86 195 203.187 195 191.513 195C179.153 195 167.48 195 155.807 195C143.447 195 131.773 195 119.413 195C107.74 195 96.0667 195 83.7067 195C72.0333 195 59.6733 195 54.18 195H48V140.287Z" fill="url(#paint0_linear_16_2303)"/>
<path d="M48 140.287H54.18C59.6733 140.287 72.0333 140.287 83.7067 137.247C96.0667 134.208 107.74 128.128 119.413 109.891C131.773 91.653 143.447 61.2568 155.807 70.3757C167.48 79.4945 179.153 128.128 191.513 140.287C203.187 152.445 214.86 128.128 227.22 109.891C238.893 91.653 251.253 79.4945 262.927 82.5342C274.6 85.5738 286.96 103.811 298.633 109.891C310.993 115.97 322.667 109.891 334.34 119.01C346.7 128.128 358.373 152.445 370.733 152.445C382.407 152.445 394.08 128.128 406.44 106.851C418.113 85.5738 430.473 67.3361 442.147 79.4945C453.82 91.653 466.18 134.208 477.853 128.128C489.527 122.049 501.887 67.3361 513.56 39.9795C525.92 12.6229 537.593 12.623 549.267 24.7814C561.627 36.9399 573.3 61.2568 585.66 82.5342C597.333 103.811 609.007 122.049 621.367 140.287C633.04 158.525 645.4 176.762 657.073 164.604C668.747 152.445 681.107 109.891 692.78 103.811C705.14 97.7322 716.813 128.128 728.487 131.168C740.847 134.208 752.52 109.891 764.193 112.93C776.553 115.97 788.227 146.366 800.587 143.327C812.26 140.287 823.933 103.811 836.293 82.5342C847.967 61.2568 860.327 55.1776 865.82 52.138L872 49.0984" stroke="#D3756B" strokeWidth="2"/>
</g>
<defs>
<linearGradient id="paint0_linear_16_2303" x1="482.5" y1="17" x2="482.5" y2="195" gradientUnits="userSpaceOnUse">
<stop stop-color="#D3756B" stop-opacity="0.15"/>
<stop offset="1" stop-color="#D3756B" stop-opacity="0"/>
</linearGradient>
<clipPath id="clip0_16_2303">
<rect width="872" height="235" fill="white"/>
</clipPath>
</defs>
</svg>
