<svg width="203" height="56" viewBox="0 0 203 56" fill="none" xmlns="http://www.w3.org/2000/svg">
<rect width="56" height="56" rx="28" fill="#776B5D"/>
<path fillRule="evenodd" clipRule="evenodd" d="M21.3971 7.43332C20.1405 8.74478 19.7087 9.83202 19.7087 11.6837C19.7087 13.3984 20.6238 14.8441 23.3295 17.4033C25.8323 19.7706 26.0087 20.0188 26.0087 21.1763C26.0087 22.704 26.3857 22.7942 26.6598 21.3321C26.9469 19.8023 26.362 18.6205 24.1549 16.272C21.8197 13.7867 21.1372 12.515 21.1591 10.6895C21.1788 9.04847 21.8262 7.6406 22.9781 6.73447C23.644 6.21087 23.6923 6.09136 23.2393 6.09136C22.9334 6.09136 22.1043 6.69535 21.3971 7.43332ZM24.3117 9.06171C23.8827 10.1905 24.4454 11.7425 25.8504 13.3035C29.028 16.8338 29.8725 18.3233 29.8725 20.3952C29.8725 22.0011 28.6467 23.5383 27.1228 23.8433C25.5615 24.1553 25.5671 24.6983 27.1289 24.4485C30.1485 23.9658 31.5634 22.2383 31.2946 19.3631C31.1058 17.3429 29.8066 15.304 27.0738 12.7377C25.1556 10.9368 24.4943 9.7966 24.8036 8.82271C25.0851 7.93597 24.6616 8.14172 24.3117 9.06171ZM36.7338 22.3251C41.3306 24.8837 36.7467 27.8041 27.5626 28.1685C19.8045 28.4762 13.5488 26.7637 13.5488 24.332C13.5488 23.6914 13.4761 23.6323 13.0868 23.9554C12.46 24.4756 12.4785 27.6523 13.1253 30.5167C13.8282 33.6281 15.272 36.426 17.2038 38.4197C18.113 39.3578 18.6363 39.7789 18.3665 39.3554C16.0482 35.7145 15.0521 33.2563 14.4962 29.8052C14.3225 28.7251 14.2184 27.8029 14.2655 27.7561C14.3123 27.709 15.3139 28.0031 16.4908 28.409C21.8909 30.2724 31.9912 30.282 37.2447 28.4285C37.9861 28.1667 38.6513 28.0114 38.7231 28.0835C38.9935 28.3539 37.8327 32.1944 36.8985 34.1194C35.6453 36.7026 32.537 39.8469 30.0265 41.0719C28.4009 41.865 27.845 41.9734 25.4066 41.9734C23.882 41.9734 22.2189 41.8514 21.7107 41.7026C20.1011 41.2311 21.2644 42.0048 23.0967 42.6248C25.7864 43.5349 28.9935 43.3791 31.443 42.2198C36.2419 39.9483 39.0101 36.2412 40.6431 29.8982C41.0411 28.3524 41.6688 27.6514 42.6543 27.6514C45.264 27.6514 44.6449 31.3939 41.4473 34.9507C39.8916 36.6807 39.6991 37.0934 40.6967 36.5597C44.1053 34.7354 46.885 29.1649 45.592 26.7492C45.1411 25.9069 43.5916 25.39 42.189 25.6143C41.0506 25.7963 40.9604 25.7578 40.9604 25.0907C40.9604 24.154 39.9797 23.2605 37.8804 22.2848C35.6564 21.2508 34.8544 21.2792 36.7338 22.3251ZM37.1874 42.4708C38.3359 43.2063 38.4317 43.6597 37.5983 44.414C35.4531 46.3556 24.7925 47.3021 16.7828 46.262C15.9623 46.1554 15.7051 46.1967 16.0128 46.3852C17.6599 47.3942 29.584 47.7219 34.3579 46.8894C38.5848 46.1523 40.8683 44.9028 40.1525 43.7185C39.8112 43.1539 37.3809 41.8492 36.6484 41.8372C36.3943 41.8332 36.637 42.1181 37.1874 42.4708Z" fill="white"/>
<path d="M81.456 37.24C80.24 37.24 79.112 37.024 78.072 36.592C77.048 36.144 76.152 35.528 75.384 34.744C74.616 33.944 74.024 33.024 73.608 31.984C73.192 30.928 72.984 29.8 72.984 28.6C72.984 27.4 73.192 26.28 73.608 25.24C74.024 24.184 74.616 23.264 75.384 22.48C76.152 21.696 77.048 21.08 78.072 20.632C79.112 20.184 80.24 19.96 81.456 19.96C82.816 19.96 83.992 20.184 84.984 20.632C85.976 21.08 86.856 21.688 87.624 22.456L85.752 24.328C85.256 23.784 84.648 23.36 83.928 23.056C83.224 22.752 82.4 22.6 81.456 22.6C80.624 22.6 79.864 22.744 79.176 23.032C78.488 23.32 77.888 23.736 77.376 24.28C76.88 24.808 76.496 25.44 76.224 26.176C75.952 26.912 75.816 27.72 75.816 28.6C75.816 29.48 75.952 30.288 76.224 31.024C76.496 31.76 76.88 32.4 77.376 32.944C77.888 33.472 78.488 33.88 79.176 34.168C79.864 34.456 80.624 34.6 81.456 34.6C82.48 34.6 83.344 34.448 84.048 34.144C84.768 33.824 85.376 33.392 85.872 32.848L87.744 34.72C86.976 35.504 86.072 36.12 85.032 36.568C83.992 37.016 82.8 37.24 81.456 37.24ZM94.7753 37.24C93.6553 37.24 92.6393 36.976 91.7273 36.448C90.8153 35.904 90.0873 35.176 89.5433 34.264C89.0153 33.352 88.7513 32.336 88.7513 31.216C88.7513 30.096 89.0153 29.088 89.5433 28.192C90.0873 27.296 90.8153 26.584 91.7273 26.056C92.6393 25.512 93.6553 25.24 94.7753 25.24C95.9113 25.24 96.9353 25.504 97.8473 26.032C98.7593 26.56 99.4793 27.28 100.007 28.192C100.551 29.088 100.823 30.096 100.823 31.216C100.823 32.336 100.551 33.352 100.007 34.264C99.4793 35.176 98.7593 35.904 97.8473 36.448C96.9353 36.976 95.9113 37.24 94.7753 37.24ZM94.7753 34.696C95.4313 34.696 96.0073 34.552 96.5033 34.264C97.0153 33.96 97.4073 33.544 97.6793 33.016C97.9673 32.488 98.1113 31.888 98.1113 31.216C98.1113 30.544 97.9673 29.952 97.6793 29.44C97.3913 28.928 96.9993 28.528 96.5033 28.24C96.0073 27.936 95.4313 27.784 94.7753 27.784C94.1353 27.784 93.5593 27.936 93.0473 28.24C92.5513 28.528 92.1593 28.928 91.8713 29.44C91.5993 29.952 91.4633 30.544 91.4633 31.216C91.4633 31.888 91.5993 32.488 91.8713 33.016C92.1593 33.544 92.5513 33.96 93.0473 34.264C93.5593 34.552 94.1353 34.696 94.7753 34.696ZM104.275 37V24.496C104.275 23.568 104.475 22.752 104.875 22.048C105.275 21.328 105.835 20.76 106.555 20.344C107.291 19.928 108.131 19.72 109.075 19.72C110.035 19.72 110.811 19.928 111.403 20.344C112.011 20.76 112.451 21.328 112.723 22.048C113.011 22.752 113.155 23.568 113.155 24.496L111.235 24.472C111.235 23.736 111.051 23.16 110.683 22.744C110.331 22.328 109.795 22.12 109.075 22.12C108.355 22.12 107.811 22.328 107.443 22.744C107.091 23.144 106.915 23.696 106.915 24.4V37H104.275ZM101.515 27.88V25.48H117.355V27.88H101.515ZM111.235 37V23.968C111.235 23.088 111.427 22.312 111.811 21.64C112.211 20.968 112.755 20.44 113.443 20.056C114.147 19.672 114.955 19.48 115.867 19.48C116.571 19.48 117.171 19.6 117.667 19.84C118.163 20.08 118.627 20.424 119.059 20.872L117.355 22.576C117.163 22.384 116.955 22.232 116.731 22.12C116.507 22.008 116.219 21.952 115.867 21.952C115.227 21.952 114.731 22.128 114.379 22.48C114.043 22.816 113.875 23.304 113.875 23.944V37H111.235ZM124.097 37.24C122.945 37.24 121.905 36.984 120.977 36.472C120.065 35.944 119.337 35.224 118.793 34.312C118.265 33.4 118.001 32.376 118.001 31.24C118.001 30.104 118.265 29.088 118.793 28.192C119.321 27.28 120.033 26.56 120.929 26.032C121.841 25.504 122.849 25.24 123.953 25.24C125.025 25.24 125.969 25.488 126.785 25.984C127.617 26.48 128.265 27.16 128.729 28.024C129.209 28.888 129.449 29.872 129.449 30.976C129.449 31.168 129.433 31.368 129.401 31.576C129.385 31.768 129.353 31.984 129.305 32.224H119.849V30.064H127.937L126.953 30.928C126.921 30.224 126.785 29.632 126.545 29.152C126.305 28.672 125.961 28.304 125.513 28.048C125.081 27.792 124.545 27.664 123.905 27.664C123.233 27.664 122.649 27.808 122.153 28.096C121.657 28.384 121.273 28.792 121.001 29.32C120.729 29.832 120.593 30.448 120.593 31.168C120.593 31.888 120.737 32.52 121.025 33.064C121.313 33.608 121.721 34.032 122.249 34.336C122.777 34.624 123.385 34.768 124.073 34.768C124.665 34.768 125.209 34.664 125.705 34.456C126.217 34.248 126.649 33.944 127.001 33.544L128.681 35.248C128.121 35.904 127.441 36.4 126.641 36.736C125.841 37.072 124.993 37.24 124.097 37.24ZM136.918 37.24C135.766 37.24 134.726 36.984 133.798 36.472C132.886 35.944 132.158 35.224 131.614 34.312C131.086 33.4 130.822 32.376 130.822 31.24C130.822 30.104 131.086 29.088 131.614 28.192C132.142 27.28 132.854 26.56 133.75 26.032C134.662 25.504 135.67 25.24 136.774 25.24C137.846 25.24 138.79 25.488 139.606 25.984C140.438 26.48 141.086 27.16 141.55 28.024C142.03 28.888 142.27 29.872 142.27 30.976C142.27 31.168 142.254 31.368 142.222 31.576C142.206 31.768 142.174 31.984 142.126 32.224H132.67V30.064H140.758L139.774 30.928C139.742 30.224 139.606 29.632 139.366 29.152C139.126 28.672 138.782 28.304 138.334 28.048C137.902 27.792 137.366 27.664 136.726 27.664C136.054 27.664 135.47 27.808 134.974 28.096C134.478 28.384 134.094 28.792 133.822 29.32C133.55 29.832 133.414 30.448 133.414 31.168C133.414 31.888 133.558 32.52 133.846 33.064C134.134 33.608 134.542 34.032 135.07 34.336C135.598 34.624 136.206 34.768 136.894 34.768C137.486 34.768 138.03 34.664 138.526 34.456C139.038 34.248 139.47 33.944 139.822 33.544L141.502 35.248C140.942 35.904 140.262 36.4 139.462 36.736C138.662 37.072 137.814 37.24 136.918 37.24ZM151.447 37V34.6H156.271C157.119 34.6 157.775 34.336 158.239 33.808C158.703 33.28 158.935 32.672 158.935 31.984C158.935 31.52 158.831 31.088 158.623 30.688C158.415 30.288 158.111 29.968 157.711 29.728C157.311 29.488 156.831 29.368 156.271 29.368H151.447V26.968H155.863C156.583 26.968 157.159 26.784 157.591 26.416C158.023 26.048 158.239 25.504 158.239 24.784C158.239 24.064 158.023 23.52 157.591 23.152C157.159 22.784 156.583 22.6 155.863 22.6H151.447V20.2H155.935C157.071 20.2 158.015 20.408 158.767 20.824C159.519 21.24 160.079 21.776 160.447 22.432C160.815 23.088 160.999 23.792 160.999 24.544C160.999 25.424 160.751 26.2 160.255 26.872C159.775 27.544 159.063 28.088 158.119 28.504L158.335 27.64C159.391 28.072 160.215 28.68 160.807 29.464C161.399 30.248 161.695 31.168 161.695 32.224C161.695 33.088 161.479 33.88 161.047 34.6C160.631 35.32 160.007 35.904 159.175 36.352C158.359 36.784 157.351 37 156.151 37H151.447ZM149.551 37V20.2H152.311V37H149.551ZM169.472 37.24C168.32 37.24 167.28 36.984 166.352 36.472C165.44 35.944 164.712 35.224 164.168 34.312C163.64 33.4 163.376 32.376 163.376 31.24C163.376 30.104 163.64 29.088 164.168 28.192C164.696 27.28 165.408 26.56 166.304 26.032C167.216 25.504 168.224 25.24 169.328 25.24C170.4 25.24 171.344 25.488 172.16 25.984C172.992 26.48 173.64 27.16 174.104 28.024C174.584 28.888 174.824 29.872 174.824 30.976C174.824 31.168 174.808 31.368 174.776 31.576C174.76 31.768 174.728 31.984 174.68 32.224H165.224V30.064H173.312L172.328 30.928C172.296 30.224 172.16 29.632 171.92 29.152C171.68 28.672 171.336 28.304 170.888 28.048C170.456 27.792 169.92 27.664 169.28 27.664C168.608 27.664 168.024 27.808 167.528 28.096C167.032 28.384 166.648 28.792 166.376 29.32C166.104 29.832 165.968 30.448 165.968 31.168C165.968 31.888 166.112 32.52 166.4 33.064C166.688 33.608 167.096 34.032 167.624 34.336C168.152 34.624 168.76 34.768 169.448 34.768C170.04 34.768 170.584 34.664 171.08 34.456C171.592 34.248 172.024 33.944 172.376 33.544L174.056 35.248C173.496 35.904 172.816 36.4 172.016 36.736C171.216 37.072 170.368 37.24 169.472 37.24ZM181.765 37.24C180.725 37.24 179.781 36.976 178.933 36.448C178.101 35.92 177.437 35.208 176.941 34.312C176.461 33.4 176.221 32.384 176.221 31.264C176.221 30.128 176.461 29.112 176.941 28.216C177.437 27.304 178.101 26.584 178.933 26.056C179.781 25.512 180.725 25.24 181.765 25.24C182.645 25.24 183.421 25.432 184.093 25.816C184.781 26.184 185.325 26.696 185.725 27.352C186.125 28.008 186.325 28.752 186.325 29.584V32.896C186.325 33.728 186.125 34.472 185.725 35.128C185.341 35.784 184.805 36.304 184.117 36.688C183.429 37.056 182.645 37.24 181.765 37.24ZM182.197 34.744C183.173 34.744 183.957 34.416 184.549 33.76C185.157 33.104 185.461 32.264 185.461 31.24C185.461 30.552 185.325 29.944 185.053 29.416C184.781 28.888 184.397 28.48 183.901 28.192C183.421 27.888 182.853 27.736 182.197 27.736C181.557 27.736 180.989 27.888 180.493 28.192C180.013 28.48 179.629 28.888 179.341 29.416C179.069 29.944 178.933 30.552 178.933 31.24C178.933 31.928 179.069 32.536 179.341 33.064C179.629 33.592 180.013 34.008 180.493 34.312C180.989 34.6 181.557 34.744 182.197 34.744ZM185.293 37V33.904L185.749 31.096L185.293 28.312V25.48H187.933V37H185.293ZM198.758 37V30.352C198.758 29.584 198.51 28.952 198.014 28.456C197.534 27.96 196.91 27.712 196.142 27.712C195.63 27.712 195.174 27.824 194.774 28.048C194.374 28.272 194.062 28.584 193.838 28.984C193.614 29.384 193.502 29.84 193.502 30.352L192.47 29.776C192.47 28.896 192.662 28.12 193.046 27.448C193.43 26.76 193.958 26.224 194.63 25.84C195.318 25.44 196.086 25.24 196.934 25.24C197.798 25.24 198.566 25.464 199.238 25.912C199.91 26.344 200.438 26.912 200.822 27.616C201.206 28.304 201.398 29.024 201.398 29.776V37H198.758ZM190.862 37V25.48H193.502V37H190.862Z" fill="white"/>
</svg>
